solid fitment test slot
   facet normal -0.000000e+00 -1.000000e+00 -0.000000e+00
      outer loop
         vertex 1.324208e+01 0.000000e+00 1.000000e+01
         vertex 0.000000e+00 0.000000e+00 1.000000e+01
         vertex 1.324208e+01 0.000000e+00 0.000000e+00
      endloop
   endfacet
   facet normal 0.000000e+00 -1.000000e+00 0.000000e+00
      outer loop
         vertex 1.324208e+01 0.000000e+00 0.000000e+00
         vertex 0.000000e+00 0.000000e+00 1.000000e+01
         vertex 0.000000e+00 0.000000e+00 0.000000e+00
      endloop
   endfacet
   facet normal 1.000000e+00 0.000000e+00 0.000000e+00
      outer loop
         vertex 1.324208e+01 1.928961e+01 1.000000e+01
         vertex 1.324208e+01 0.000000e+00 1.000000e+01
         vertex 1.324208e+01 1.928961e+01 0.000000e+00
      endloop
   endfacet
   facet normal 1.000000e+00 0.000000e+00 0.000000e+00
      outer loop
         vertex 1.324208e+01 1.928961e+01 0.000000e+00
         vertex 1.324208e+01 0.000000e+00 1.000000e+01
         vertex 1.324208e+01 0.000000e+00 0.000000e+00
      endloop
   endfacet
   facet normal -0.000000e+00 1.000000e+00 0.000000e+00
      outer loop
         vertex 0.000000e+00 1.928961e+01 1.000000e+01
         vertex 1.324208e+01 1.928961e+01 1.000000e+01
         vertex 0.000000e+00 1.928961e+01 0.000000e+00
      endloop
   endfacet
   facet normal 0.000000e+00 1.000000e+00 0.000000e+00
      outer loop
         vertex 0.000000e+00 1.928961e+01 0.000000e+00
         vertex 1.324208e+01 1.928961e+01 1.000000e+01
         vertex 1.324208e+01 1.928961e+01 0.000000e+00
      endloop
   endfacet
   facet normal -1.000000e+00 0.000000e+00 0.000000e+00
      outer loop
         vertex 0.000000e+00 1.184958e+01 1.000000e+01
         vertex 0.000000e+00 1.928961e+01 1.000000e+01
         vertex 0.000000e+00 1.184958e+01 0.000000e+00
      endloop
   endfacet
   facet normal -1.000000e+00 0.000000e+00 0.000000e+00
      outer loop
         vertex 0.000000e+00 1.184958e+01 0.000000e+00
         vertex 0.000000e+00 1.928961e+01 1.000000e+01
         vertex 0.000000e+00 1.928961e+01 0.000000e+00
      endloop
   endfacet
   facet normal -0.000000e+00 -1.000000e+00 -0.000000e+00
      outer loop
         vertex 5.000003e+00 1.184958e+01 1.000000e+01
         vertex 0.000000e+00 1.184958e+01 1.000000e+01
         vertex 5.000003e+00 1.184958e+01 0.000000e+00
      endloop
   endfacet
   facet normal 0.000000e+00 -1.000000e+00 0.000000e+00
      outer loop
         vertex 5.000003e+00 1.184958e+01 0.000000e+00
         vertex 0.000000e+00 1.184958e+01 1.000000e+01
         vertex 0.000000e+00 1.184958e+01 0.000000e+00
      endloop
   endfacet
   facet normal 1.000000e+00 0.000000e+00 0.000000e+00
      outer loop
         vertex 5.000003e+00 1.484958e+01 1.000000e+01
         vertex 5.000003e+00 1.184958e+01 1.000000e+01
         vertex 5.000003e+00 1.484958e+01 0.000000e+00
      endloop
   endfacet
   facet normal 1.000000e+00 0.000000e+00 0.000000e+00
      outer loop
         vertex 5.000003e+00 1.484958e+01 0.000000e+00
         vertex 5.000003e+00 1.184958e+01 1.000000e+01
         vertex 5.000003e+00 1.184958e+01 0.000000e+00
      endloop
   endfacet
   facet normal -0.000000e+00 -1.000000e+00 -0.000000e+00
      outer loop
         vertex 9.999998e+00 1.484958e+01 1.000000e+01
         vertex 5.000003e+00 1.484958e+01 1.000000e+01
         vertex 9.999998e+00 1.484958e+01 0.000000e+00
      endloop
   endfacet
   facet normal 0.000000e+00 -1.000000e+00 0.000000e+00
      outer loop
         vertex 9.999998e+00 1.484958e+01 0.000000e+00
         vertex 5.000003e+00 1.484958e+01 1.000000e+01
         vertex 5.000003e+00 1.484958e+01 0.000000e+00
      endloop
   endfacet
   facet normal -1.000000e+00 0.000000e+00 0.000000e+00
      outer loop
         vertex 9.999998e+00 4.849583e+00 1.000000e+01
         vertex 9.999998e+00 1.484958e+01 1.000000e+01
         vertex 9.999998e+00 4.849583e+00 0.000000e+00
      endloop
   endfacet
   facet normal -1.000000e+00 0.000000e+00 0.000000e+00
      outer loop
         vertex 9.999998e+00 4.849583e+00 0.000000e+00
         vertex 9.999998e+00 1.484958e+01 1.000000e+01
         vertex 9.999998e+00 1.484958e+01 0.000000e+00
      endloop
   endfacet
   facet normal -0.000000e+00 1.000000e+00 0.000000e+00
      outer loop
         vertex 5.000003e+00 4.849583e+00 1.000000e+01
         vertex 9.999998e+00 4.849583e+00 1.000000e+01
         vertex 5.000003e+00 4.849583e+00 0.000000e+00
      endloop
   endfacet
   facet normal 0.000000e+00 1.000000e+00 0.000000e+00
      outer loop
         vertex 5.000003e+00 4.849583e+00 0.000000e+00
         vertex 9.999998e+00 4.849583e+00 1.000000e+01
         vertex 9.999998e+00 4.849583e+00 0.000000e+00
      endloop
   endfacet
   facet normal 1.000000e+00 0.000000e+00 0.000000e+00
      outer loop
         vertex 5.000003e+00 7.849585e+00 1.000000e+01
         vertex 5.000003e+00 4.849583e+00 1.000000e+01
         vertex 5.000003e+00 7.849585e+00 0.000000e+00
      endloop
   endfacet
   facet normal 1.000000e+00 0.000000e+00 0.000000e+00
      outer loop
         vertex 5.000003e+00 7.849585e+00 0.000000e+00
         vertex 5.000003e+00 4.849583e+00 1.000000e+01
         vertex 5.000003e+00 4.849583e+00 0.000000e+00
      endloop
   endfacet
   facet normal -0.000000e+00 1.000000e+00 0.000000e+00
      outer loop
         vertex 0.000000e+00 7.849585e+00 1.000000e+01
         vertex 5.000003e+00 7.849585e+00 1.000000e+01
         vertex 0.000000e+00 7.849585e+00 0.000000e+00
      endloop
   endfacet
   facet normal 0.000000e+00 1.000000e+00 0.000000e+00
      outer loop
         vertex 0.000000e+00 7.849585e+00 0.000000e+00
         vertex 5.000003e+00 7.849585e+00 1.000000e+01
         vertex 5.000003e+00 7.849585e+00 0.000000e+00
      endloop
   endfacet
   facet normal -1.000000e+00 0.000000e+00 0.000000e+00
      outer loop
         vertex 0.000000e+00 0.000000e+00 1.000000e+01
         vertex 0.000000e+00 7.849585e+00 1.000000e+01
         vertex 0.000000e+00 0.000000e+00 0.000000e+00
      endloop
   endfacet
   facet normal -1.000000e+00 0.000000e+00 0.000000e+00
      outer loop
         vertex 0.000000e+00 0.000000e+00 0.000000e+00
         vertex 0.000000e+00 7.849585e+00 1.000000e+01
         vertex 0.000000e+00 7.849585e+00 0.000000e+00
      endloop
   endfacet
   facet normal 0.000000e+00 0.000000e+00 1.000000e+00
      outer loop
         vertex 5.000003e+00 7.849585e+00 1.000000e+01
         vertex 0.000000e+00 7.849585e+00 1.000000e+01
         vertex 5.000003e+00 4.849583e+00 1.000000e+01
      endloop
   endfacet
   facet normal 0.000000e+00 0.000000e+00 1.000000e+00
      outer loop
         vertex 5.000003e+00 4.849583e+00 1.000000e+01
         vertex 0.000000e+00 7.849585e+00 1.000000e+01
         vertex 0.000000e+00 0.000000e+00 1.000000e+01
      endloop
   endfacet
   facet normal -0.000000e+00 0.000000e+00 1.000000e+00
      outer loop
         vertex 5.000003e+00 4.849583e+00 1.000000e+01
         vertex 0.000000e+00 0.000000e+00 1.000000e+01
         vertex 9.999998e+00 4.849583e+00 1.000000e+01
      endloop
   endfacet
   facet normal 0.000000e+00 0.000000e+00 1.000000e+00
      outer loop
         vertex 9.999998e+00 4.849583e+00 1.000000e+01
         vertex 0.000000e+00 0.000000e+00 1.000000e+01
         vertex 1.324208e+01 0.000000e+00 1.000000e+01
      endloop
   endfacet
   facet normal -0.000000e+00 0.000000e+00 1.000000e+00
      outer loop
         vertex 9.999998e+00 4.849583e+00 1.000000e+01
         vertex 1.324208e+01 0.000000e+00 1.000000e+01
         vertex 9.999998e+00 1.484958e+01 1.000000e+01
      endloop
   endfacet
   facet normal -0.000000e+00 0.000000e+00 1.000000e+00
      outer loop
         vertex 9.999998e+00 1.484958e+01 1.000000e+01
         vertex 1.324208e+01 0.000000e+00 1.000000e+01
         vertex 1.324208e+01 1.928961e+01 1.000000e+01
      endloop
   endfacet
   facet normal 0.000000e+00 -0.000000e+00 1.000000e+00
      outer loop
         vertex 9.999998e+00 1.484958e+01 1.000000e+01
         vertex 1.324208e+01 1.928961e+01 1.000000e+01
         vertex 5.000003e+00 1.484958e+01 1.000000e+01
      endloop
   endfacet
   facet normal 0.000000e+00 -0.000000e+00 1.000000e+00
      outer loop
         vertex 5.000003e+00 1.484958e+01 1.000000e+01
         vertex 1.324208e+01 1.928961e+01 1.000000e+01
         vertex 0.000000e+00 1.928961e+01 1.000000e+01
      endloop
   endfacet
   facet normal 0.000000e+00 0.000000e+00 1.000000e+00
      outer loop
         vertex 5.000003e+00 1.484958e+01 1.000000e+01
         vertex 0.000000e+00 1.928961e+01 1.000000e+01
         vertex 5.000003e+00 1.184958e+01 1.000000e+01
      endloop
   endfacet
   facet normal 0.000000e+00 0.000000e+00 1.000000e+00
      outer loop
         vertex 5.000003e+00 1.184958e+01 1.000000e+01
         vertex 0.000000e+00 1.928961e+01 1.000000e+01
         vertex 0.000000e+00 1.184958e+01 1.000000e+01
      endloop
   endfacet
   facet normal 0.000000e+00 0.000000e+00 -1.000000e+00
      outer loop
         vertex 5.000003e+00 1.184958e+01 0.000000e+00
         vertex 0.000000e+00 1.184958e+01 0.000000e+00
         vertex 5.000003e+00 1.484958e+01 0.000000e+00
      endloop
   endfacet
   facet normal -0.000000e+00 0.000000e+00 -1.000000e+00
      outer loop
         vertex 5.000003e+00 1.484958e+01 0.000000e+00
         vertex 0.000000e+00 1.184958e+01 0.000000e+00
         vertex 0.000000e+00 1.928961e+01 0.000000e+00
      endloop
   endfacet
   facet normal 0.000000e+00 0.000000e+00 -1.000000e+00
      outer loop
         vertex 5.000003e+00 1.484958e+01 0.000000e+00
         vertex 0.000000e+00 1.928961e+01 0.000000e+00
         vertex 9.999998e+00 1.484958e+01 0.000000e+00
      endloop
   endfacet
   facet normal 0.000000e+00 0.000000e+00 -1.000000e+00
      outer loop
         vertex 9.999998e+00 1.484958e+01 0.000000e+00
         vertex 0.000000e+00 1.928961e+01 0.000000e+00
         vertex 1.324208e+01 1.928961e+01 0.000000e+00
      endloop
   endfacet
   facet normal 0.000000e+00 0.000000e+00 -1.000000e+00
      outer loop
         vertex 9.999998e+00 1.484958e+01 0.000000e+00
         vertex 1.324208e+01 1.928961e+01 0.000000e+00
         vertex 9.999998e+00 4.849583e+00 0.000000e+00
      endloop
   endfacet
   facet normal 0.000000e+00 0.000000e+00 -1.000000e+00
      outer loop
         vertex 9.999998e+00 4.849583e+00 0.000000e+00
         vertex 1.324208e+01 1.928961e+01 0.000000e+00
         vertex 1.324208e+01 0.000000e+00 0.000000e+00
      endloop
   endfacet
   facet normal -0.000000e+00 -0.000000e+00 -1.000000e+00
      outer loop
         vertex 9.999998e+00 4.849583e+00 0.000000e+00
         vertex 1.324208e+01 0.000000e+00 0.000000e+00
         vertex 5.000003e+00 4.849583e+00 0.000000e+00
      endloop
   endfacet
   facet normal 0.000000e+00 -0.000000e+00 -1.000000e+00
      outer loop
         vertex 5.000003e+00 4.849583e+00 0.000000e+00
         vertex 1.324208e+01 0.000000e+00 0.000000e+00
         vertex 0.000000e+00 0.000000e+00 0.000000e+00
      endloop
   endfacet
   facet normal -0.000000e+00 0.000000e+00 -1.000000e+00
      outer loop
         vertex 5.000003e+00 4.849583e+00 0.000000e+00
         vertex 0.000000e+00 0.000000e+00 0.000000e+00
         vertex 5.000003e+00 7.849585e+00 0.000000e+00
      endloop
   endfacet
   facet normal -0.000000e+00 0.000000e+00 -1.000000e+00
      outer loop
         vertex 5.000003e+00 7.849585e+00 0.000000e+00
         vertex 0.000000e+00 0.000000e+00 0.000000e+00
         vertex 0.000000e+00 7.849585e+00 0.000000e+00
      endloop
   endfacet
endsolid