solid slot test 0.2
   facet normal 0.000000e+00 1.000000e+00 -0.000000e+00
      outer loop
         vertex 2.624132e+00 1.444958e+01 0.000000e+00
         vertex 0.000000e+00 1.444958e+01 0.000000e+00
         vertex 2.624132e+00 1.444958e+01 1.000000e+01
      endloop
   endfacet
   facet normal 0.000000e+00 1.000000e+00 0.000000e+00
      outer loop
         vertex 2.624132e+00 1.444958e+01 1.000000e+01
         vertex 0.000000e+00 1.444958e+01 0.000000e+00
         vertex 0.000000e+00 1.444958e+01 1.000000e+01
      endloop
   endfacet
   facet normal 1.000000e+00 0.000000e+00 0.000000e+00
      outer loop
         vertex 2.624132e+00 1.144958e+01 0.000000e+00
         vertex 2.624132e+00 1.444958e+01 0.000000e+00
         vertex 2.624132e+00 1.144958e+01 1.000000e+01
      endloop
   endfacet
   facet normal 1.000000e+00 -0.000000e+00 0.000000e+00
      outer loop
         vertex 2.624132e+00 1.144958e+01 1.000000e+01
         vertex 2.624132e+00 1.444958e+01 0.000000e+00
         vertex 2.624132e+00 1.444958e+01 1.000000e+01
      endloop
   endfacet
   facet normal 0.000000e+00 1.000000e+00 -0.000000e+00
      outer loop
         vertex 8.024126e+00 1.144958e+01 0.000000e+00
         vertex 2.624132e+00 1.144958e+01 0.000000e+00
         vertex 8.024126e+00 1.144958e+01 1.000000e+01
      endloop
   endfacet
   facet normal 0.000000e+00 1.000000e+00 0.000000e+00
      outer loop
         vertex 8.024126e+00 1.144958e+01 1.000000e+01
         vertex 2.624132e+00 1.144958e+01 0.000000e+00
         vertex 2.624132e+00 1.144958e+01 1.000000e+01
      endloop
   endfacet
   facet normal -1.000000e+00 0.000000e+00 0.000000e+00
      outer loop
         vertex 8.024126e+00 1.444958e+01 0.000000e+00
         vertex 8.024126e+00 1.144958e+01 0.000000e+00
         vertex 8.024126e+00 1.444958e+01 1.000000e+01
      endloop
   endfacet
   facet normal -1.000000e+00 -0.000000e+00 0.000000e+00
      outer loop
         vertex 8.024126e+00 1.444958e+01 1.000000e+01
         vertex 8.024126e+00 1.144958e+01 0.000000e+00
         vertex 8.024126e+00 1.144958e+01 1.000000e+01
      endloop
   endfacet
   facet normal 0.000000e+00 1.000000e+00 -0.000000e+00
      outer loop
         vertex 1.262413e+01 1.444958e+01 0.000000e+00
         vertex 8.024126e+00 1.444958e+01 0.000000e+00
         vertex 1.262413e+01 1.444958e+01 1.000000e+01
      endloop
   endfacet
   facet normal 0.000000e+00 1.000000e+00 0.000000e+00
      outer loop
         vertex 1.262413e+01 1.444958e+01 1.000000e+01
         vertex 8.024126e+00 1.444958e+01 0.000000e+00
         vertex 8.024126e+00 1.444958e+01 1.000000e+01
      endloop
   endfacet
   facet normal 1.000000e+00 0.000000e+00 0.000000e+00
      outer loop
         vertex 1.262413e+01 4.849583e+00 0.000000e+00
         vertex 1.262413e+01 1.444958e+01 0.000000e+00
         vertex 1.262413e+01 4.849583e+00 1.000000e+01
      endloop
   endfacet
   facet normal 1.000000e+00 -0.000000e+00 0.000000e+00
      outer loop
         vertex 1.262413e+01 4.849583e+00 1.000000e+01
         vertex 1.262413e+01 1.444958e+01 0.000000e+00
         vertex 1.262413e+01 1.444958e+01 1.000000e+01
      endloop
   endfacet
   facet normal 0.000000e+00 -1.000000e+00 0.000000e+00
      outer loop
         vertex 8.024126e+00 4.849583e+00 0.000000e+00
         vertex 1.262413e+01 4.849583e+00 0.000000e+00
         vertex 8.024126e+00 4.849583e+00 1.000000e+01
      endloop
   endfacet
   facet normal 0.000000e+00 -1.000000e+00 0.000000e+00
      outer loop
         vertex 8.024126e+00 4.849583e+00 1.000000e+01
         vertex 1.262413e+01 4.849583e+00 0.000000e+00
         vertex 1.262413e+01 4.849583e+00 1.000000e+01
      endloop
   endfacet
   facet normal -1.000000e+00 0.000000e+00 0.000000e+00
      outer loop
         vertex 8.024126e+00 7.849585e+00 0.000000e+00
         vertex 8.024126e+00 4.849583e+00 0.000000e+00
         vertex 8.024126e+00 7.849585e+00 1.000000e+01
      endloop
   endfacet
   facet normal -1.000000e+00 -0.000000e+00 0.000000e+00
      outer loop
         vertex 8.024126e+00 7.849585e+00 1.000000e+01
         vertex 8.024126e+00 4.849583e+00 0.000000e+00
         vertex 8.024126e+00 4.849583e+00 1.000000e+01
      endloop
   endfacet
   facet normal 0.000000e+00 -1.000000e+00 0.000000e+00
      outer loop
         vertex 2.624132e+00 7.849585e+00 0.000000e+00
         vertex 8.024126e+00 7.849585e+00 0.000000e+00
         vertex 2.624132e+00 7.849585e+00 1.000000e+01
      endloop
   endfacet
   facet normal 0.000000e+00 -1.000000e+00 0.000000e+00
      outer loop
         vertex 2.624132e+00 7.849585e+00 1.000000e+01
         vertex 8.024126e+00 7.849585e+00 0.000000e+00
         vertex 8.024126e+00 7.849585e+00 1.000000e+01
      endloop
   endfacet
   facet normal 1.000000e+00 0.000000e+00 0.000000e+00
      outer loop
         vertex 2.624132e+00 0.000000e+00 0.000000e+00
         vertex 2.624132e+00 7.849585e+00 0.000000e+00
         vertex 2.624132e+00 0.000000e+00 1.000000e+01
      endloop
   endfacet
   facet normal 1.000000e+00 -0.000000e+00 0.000000e+00
      outer loop
         vertex 2.624132e+00 0.000000e+00 1.000000e+01
         vertex 2.624132e+00 7.849585e+00 0.000000e+00
         vertex 2.624132e+00 7.849585e+00 1.000000e+01
      endloop
   endfacet
   facet normal 0.000000e+00 -1.000000e+00 0.000000e+00
      outer loop
         vertex 0.000000e+00 0.000000e+00 0.000000e+00
         vertex 2.624132e+00 0.000000e+00 0.000000e+00
         vertex 0.000000e+00 0.000000e+00 1.000000e+01
      endloop
   endfacet
   facet normal 0.000000e+00 -1.000000e+00 0.000000e+00
      outer loop
         vertex 0.000000e+00 0.000000e+00 1.000000e+01
         vertex 2.624132e+00 0.000000e+00 0.000000e+00
         vertex 2.624132e+00 0.000000e+00 1.000000e+01
      endloop
   endfacet
   facet normal -1.000000e+00 0.000000e+00 0.000000e+00
      outer loop
         vertex 0.000000e+00 1.444958e+01 0.000000e+00
         vertex 0.000000e+00 0.000000e+00 0.000000e+00
         vertex 0.000000e+00 1.444958e+01 1.000000e+01
      endloop
   endfacet
   facet normal -1.000000e+00 -0.000000e+00 0.000000e+00
      outer loop
         vertex 0.000000e+00 1.444958e+01 1.000000e+01
         vertex 0.000000e+00 0.000000e+00 0.000000e+00
         vertex 0.000000e+00 0.000000e+00 1.000000e+01
      endloop
   endfacet
   facet normal 0.000000e+00 0.000000e+00 -1.000000e+00
      outer loop
         vertex 8.024126e+00 1.144958e+01 0.000000e+00
         vertex 8.024126e+00 1.444958e+01 0.000000e+00
         vertex 1.262413e+01 1.444958e+01 0.000000e+00
      endloop
   endfacet
   facet normal 0.000000e+00 0.000000e+00 -1.000000e+00
      outer loop
         vertex 0.000000e+00 0.000000e+00 0.000000e+00
         vertex 0.000000e+00 1.444958e+01 0.000000e+00
         vertex 2.624132e+00 1.144958e+01 0.000000e+00
      endloop
   endfacet
   facet normal 0.000000e+00 0.000000e+00 -1.000000e+00
      outer loop
         vertex 2.624132e+00 1.144958e+01 0.000000e+00
         vertex 0.000000e+00 1.444958e+01 0.000000e+00
         vertex 2.624132e+00 1.444958e+01 0.000000e+00
      endloop
   endfacet
   facet normal 0.000000e+00 0.000000e+00 -1.000000e+00
      outer loop
         vertex 1.262413e+01 4.849583e+00 0.000000e+00
         vertex 8.024126e+00 4.849583e+00 0.000000e+00
         vertex 8.024126e+00 7.849585e+00 0.000000e+00
      endloop
   endfacet
   facet normal 0.000000e+00 0.000000e+00 -1.000000e+00
      outer loop
         vertex 2.624132e+00 0.000000e+00 0.000000e+00
         vertex 0.000000e+00 0.000000e+00 0.000000e+00
         vertex 2.624132e+00 7.849585e+00 0.000000e+00
      endloop
   endfacet
   facet normal -0.000000e+00 0.000000e+00 -1.000000e+00
      outer loop
         vertex 2.624132e+00 7.849585e+00 0.000000e+00
         vertex 0.000000e+00 0.000000e+00 0.000000e+00
         vertex 2.624132e+00 1.144958e+01 0.000000e+00
      endloop
   endfacet
   facet normal 0.000000e+00 0.000000e+00 -1.000000e+00
      outer loop
         vertex 2.624132e+00 7.849585e+00 0.000000e+00
         vertex 2.624132e+00 1.144958e+01 0.000000e+00
         vertex 8.024126e+00 7.849585e+00 0.000000e+00
      endloop
   endfacet
   facet normal 0.000000e+00 0.000000e+00 -1.000000e+00
      outer loop
         vertex 8.024126e+00 7.849585e+00 0.000000e+00
         vertex 2.624132e+00 1.144958e+01 0.000000e+00
         vertex 8.024126e+00 1.144958e+01 0.000000e+00
      endloop
   endfacet
   facet normal 0.000000e+00 0.000000e+00 -1.000000e+00
      outer loop
         vertex 8.024126e+00 7.849585e+00 0.000000e+00
         vertex 8.024126e+00 1.144958e+01 0.000000e+00
         vertex 1.262413e+01 4.849583e+00 0.000000e+00
      endloop
   endfacet
   facet normal 0.000000e+00 0.000000e+00 -1.000000e+00
      outer loop
         vertex 1.262413e+01 4.849583e+00 0.000000e+00
         vertex 8.024126e+00 1.144958e+01 0.000000e+00
         vertex 1.262413e+01 1.444958e+01 0.000000e+00
      endloop
   endfacet
   facet normal 0.000000e+00 0.000000e+00 1.000000e+00
      outer loop
         vertex 8.024126e+00 7.849585e+00 1.000000e+01
         vertex 8.024126e+00 4.849583e+00 1.000000e+01
         vertex 1.262413e+01 4.849583e+00 1.000000e+01
      endloop
   endfacet
   facet normal 0.000000e+00 0.000000e+00 1.000000e+00
      outer loop
         vertex 0.000000e+00 0.000000e+00 1.000000e+01
         vertex 2.624132e+00 0.000000e+00 1.000000e+01
         vertex 0.000000e+00 1.444958e+01 1.000000e+01
      endloop
   endfacet
   facet normal 0.000000e+00 0.000000e+00 1.000000e+00
      outer loop
         vertex 0.000000e+00 1.444958e+01 1.000000e+01
         vertex 2.624132e+00 0.000000e+00 1.000000e+01
         vertex 2.624132e+00 7.849585e+00 1.000000e+01
      endloop
   endfacet
   facet normal 0.000000e+00 0.000000e+00 1.000000e+00
      outer loop
         vertex 1.262413e+01 1.444958e+01 1.000000e+01
         vertex 8.024126e+00 1.444958e+01 1.000000e+01
         vertex 8.024126e+00 1.144958e+01 1.000000e+01
      endloop
   endfacet
   facet normal 0.000000e+00 0.000000e+00 1.000000e+00
      outer loop
         vertex 2.624132e+00 1.444958e+01 1.000000e+01
         vertex 0.000000e+00 1.444958e+01 1.000000e+01
         vertex 2.624132e+00 1.144958e+01 1.000000e+01
      endloop
   endfacet
   facet normal 0.000000e+00 0.000000e+00 1.000000e+00
      outer loop
         vertex 2.624132e+00 1.144958e+01 1.000000e+01
         vertex 0.000000e+00 1.444958e+01 1.000000e+01
         vertex 2.624132e+00 7.849585e+00 1.000000e+01
      endloop
   endfacet
   facet normal -0.000000e+00 0.000000e+00 1.000000e+00
      outer loop
         vertex 2.624132e+00 1.144958e+01 1.000000e+01
         vertex 2.624132e+00 7.849585e+00 1.000000e+01
         vertex 8.024126e+00 1.144958e+01 1.000000e+01
      endloop
   endfacet
   facet normal 0.000000e+00 0.000000e+00 1.000000e+00
      outer loop
         vertex 8.024126e+00 1.144958e+01 1.000000e+01
         vertex 2.624132e+00 7.849585e+00 1.000000e+01
         vertex 8.024126e+00 7.849585e+00 1.000000e+01
      endloop
   endfacet
   facet normal -0.000000e+00 0.000000e+00 1.000000e+00
      outer loop
         vertex 8.024126e+00 1.144958e+01 1.000000e+01
         vertex 8.024126e+00 7.849585e+00 1.000000e+01
         vertex 1.262413e+01 1.444958e+01 1.000000e+01
      endloop
   endfacet
   facet normal 0.000000e+00 0.000000e+00 1.000000e+00
      outer loop
         vertex 1.262413e+01 1.444958e+01 1.000000e+01
         vertex 8.024126e+00 7.849585e+00 1.000000e+01
         vertex 1.262413e+01 4.849583e+00 1.000000e+01
      endloop
   endfacet
endsolid