solid slot test 0.1
   facet normal 0.000000e+00 1.000000e+00 -0.000000e+00
      outer loop
         vertex 2.924129e+00 1.474958e+01 0.000000e+00
         vertex 1.000017e-01 1.474958e+01 0.000000e+00
         vertex 2.924129e+00 1.474958e+01 1.000000e+01
      endloop
   endfacet
   facet normal 0.000000e+00 1.000000e+00 0.000000e+00
      outer loop
         vertex 2.924129e+00 1.474958e+01 1.000000e+01
         vertex 1.000017e-01 1.474958e+01 0.000000e+00
         vertex 1.000017e-01 1.474958e+01 1.000000e+01
      endloop
   endfacet
   facet normal 1.000000e+00 0.000000e+00 0.000000e+00
      outer loop
         vertex 2.924129e+00 1.174958e+01 0.000000e+00
         vertex 2.924129e+00 1.474958e+01 0.000000e+00
         vertex 2.924129e+00 1.174958e+01 1.000000e+01
      endloop
   endfacet
   facet normal 1.000000e+00 -0.000000e+00 0.000000e+00
      outer loop
         vertex 2.924129e+00 1.174958e+01 1.000000e+01
         vertex 2.924129e+00 1.474958e+01 0.000000e+00
         vertex 2.924129e+00 1.474958e+01 1.000000e+01
      endloop
   endfacet
   facet normal 0.000000e+00 1.000000e+00 -0.000000e+00
      outer loop
         vertex 8.124135e+00 1.174958e+01 0.000000e+00
         vertex 2.924129e+00 1.174958e+01 0.000000e+00
         vertex 8.124135e+00 1.174958e+01 1.000000e+01
      endloop
   endfacet
   facet normal 0.000000e+00 1.000000e+00 0.000000e+00
      outer loop
         vertex 8.124135e+00 1.174958e+01 1.000000e+01
         vertex 2.924129e+00 1.174958e+01 0.000000e+00
         vertex 2.924129e+00 1.174958e+01 1.000000e+01
      endloop
   endfacet
   facet normal -1.000000e+00 0.000000e+00 0.000000e+00
      outer loop
         vertex 8.124135e+00 1.474958e+01 0.000000e+00
         vertex 8.124135e+00 1.174958e+01 0.000000e+00
         vertex 8.124135e+00 1.474958e+01 1.000000e+01
      endloop
   endfacet
   facet normal -1.000000e+00 -0.000000e+00 0.000000e+00
      outer loop
         vertex 8.124135e+00 1.474958e+01 1.000000e+01
         vertex 8.124135e+00 1.174958e+01 0.000000e+00
         vertex 8.124135e+00 1.174958e+01 1.000000e+01
      endloop
   endfacet
   facet normal 0.000000e+00 1.000000e+00 -0.000000e+00
      outer loop
         vertex 1.292413e+01 1.474958e+01 0.000000e+00
         vertex 8.124135e+00 1.474958e+01 0.000000e+00
         vertex 1.292413e+01 1.474958e+01 1.000000e+01
      endloop
   endfacet
   facet normal 0.000000e+00 1.000000e+00 0.000000e+00
      outer loop
         vertex 1.292413e+01 1.474958e+01 1.000000e+01
         vertex 8.124135e+00 1.474958e+01 0.000000e+00
         vertex 8.124135e+00 1.474958e+01 1.000000e+01
      endloop
   endfacet
   facet normal 1.000000e+00 0.000000e+00 0.000000e+00
      outer loop
         vertex 1.292413e+01 4.949585e+00 0.000000e+00
         vertex 1.292413e+01 1.474958e+01 0.000000e+00
         vertex 1.292413e+01 4.949585e+00 1.000000e+01
      endloop
   endfacet
   facet normal 1.000000e+00 -0.000000e+00 0.000000e+00
      outer loop
         vertex 1.292413e+01 4.949585e+00 1.000000e+01
         vertex 1.292413e+01 1.474958e+01 0.000000e+00
         vertex 1.292413e+01 1.474958e+01 1.000000e+01
      endloop
   endfacet
   facet normal 0.000000e+00 -1.000000e+00 0.000000e+00
      outer loop
         vertex 8.124135e+00 4.949585e+00 0.000000e+00
         vertex 1.292413e+01 4.949585e+00 0.000000e+00
         vertex 8.124135e+00 4.949585e+00 1.000000e+01
      endloop
   endfacet
   facet normal 0.000000e+00 -1.000000e+00 0.000000e+00
      outer loop
         vertex 8.124135e+00 4.949585e+00 1.000000e+01
         vertex 1.292413e+01 4.949585e+00 0.000000e+00
         vertex 1.292413e+01 4.949585e+00 1.000000e+01
      endloop
   endfacet
   facet normal -1.000000e+00 0.000000e+00 0.000000e+00
      outer loop
         vertex 8.124135e+00 7.949583e+00 0.000000e+00
         vertex 8.124135e+00 4.949585e+00 0.000000e+00
         vertex 8.124135e+00 7.949583e+00 1.000000e+01
      endloop
   endfacet
   facet normal -1.000000e+00 -0.000000e+00 0.000000e+00
      outer loop
         vertex 8.124135e+00 7.949583e+00 1.000000e+01
         vertex 8.124135e+00 4.949585e+00 0.000000e+00
         vertex 8.124135e+00 4.949585e+00 1.000000e+01
      endloop
   endfacet
   facet normal 0.000000e+00 -1.000000e+00 0.000000e+00
      outer loop
         vertex 2.924129e+00 7.949583e+00 0.000000e+00
         vertex 8.124135e+00 7.949583e+00 0.000000e+00
         vertex 2.924129e+00 7.949583e+00 1.000000e+01
      endloop
   endfacet
   facet normal 0.000000e+00 -1.000000e+00 0.000000e+00
      outer loop
         vertex 2.924129e+00 7.949583e+00 1.000000e+01
         vertex 8.124135e+00 7.949583e+00 0.000000e+00
         vertex 8.124135e+00 7.949583e+00 1.000000e+01
      endloop
   endfacet
   facet normal 1.000000e+00 0.000000e+00 0.000000e+00
      outer loop
         vertex 2.924129e+00 9.999797e-02 0.000000e+00
         vertex 2.924129e+00 7.949583e+00 0.000000e+00
         vertex 2.924129e+00 9.999797e-02 1.000000e+01
      endloop
   endfacet
   facet normal 1.000000e+00 -0.000000e+00 0.000000e+00
      outer loop
         vertex 2.924129e+00 9.999797e-02 1.000000e+01
         vertex 2.924129e+00 7.949583e+00 0.000000e+00
         vertex 2.924129e+00 7.949583e+00 1.000000e+01
      endloop
   endfacet
   facet normal 0.000000e+00 -1.000000e+00 0.000000e+00
      outer loop
         vertex 1.000017e-01 9.999797e-02 0.000000e+00
         vertex 2.924129e+00 9.999797e-02 0.000000e+00
         vertex 1.000017e-01 9.999797e-02 1.000000e+01
      endloop
   endfacet
   facet normal 0.000000e+00 -1.000000e+00 0.000000e+00
      outer loop
         vertex 1.000017e-01 9.999797e-02 1.000000e+01
         vertex 2.924129e+00 9.999797e-02 0.000000e+00
         vertex 2.924129e+00 9.999797e-02 1.000000e+01
      endloop
   endfacet
   facet normal -1.000000e+00 0.000000e+00 0.000000e+00
      outer loop
         vertex 1.000017e-01 1.474958e+01 0.000000e+00
         vertex 1.000017e-01 9.999797e-02 0.000000e+00
         vertex 1.000017e-01 1.474958e+01 1.000000e+01
      endloop
   endfacet
   facet normal -1.000000e+00 -0.000000e+00 0.000000e+00
      outer loop
         vertex 1.000017e-01 1.474958e+01 1.000000e+01
         vertex 1.000017e-01 9.999797e-02 0.000000e+00
         vertex 1.000017e-01 9.999797e-02 1.000000e+01
      endloop
   endfacet
   facet normal 0.000000e+00 0.000000e+00 -1.000000e+00
      outer loop
         vertex 8.124135e+00 1.174958e+01 0.000000e+00
         vertex 8.124135e+00 1.474958e+01 0.000000e+00
         vertex 1.292413e+01 1.474958e+01 0.000000e+00
      endloop
   endfacet
   facet normal 0.000000e+00 0.000000e+00 -1.000000e+00
      outer loop
         vertex 1.000017e-01 9.999797e-02 0.000000e+00
         vertex 1.000017e-01 1.474958e+01 0.000000e+00
         vertex 2.924129e+00 1.174958e+01 0.000000e+00
      endloop
   endfacet
   facet normal 0.000000e+00 0.000000e+00 -1.000000e+00
      outer loop
         vertex 2.924129e+00 1.174958e+01 0.000000e+00
         vertex 1.000017e-01 1.474958e+01 0.000000e+00
         vertex 2.924129e+00 1.474958e+01 0.000000e+00
      endloop
   endfacet
   facet normal 0.000000e+00 0.000000e+00 -1.000000e+00
      outer loop
         vertex 1.292413e+01 4.949585e+00 0.000000e+00
         vertex 8.124135e+00 4.949585e+00 0.000000e+00
         vertex 8.124135e+00 7.949583e+00 0.000000e+00
      endloop
   endfacet
   facet normal 0.000000e+00 0.000000e+00 -1.000000e+00
      outer loop
         vertex 2.924129e+00 9.999797e-02 0.000000e+00
         vertex 1.000017e-01 9.999797e-02 0.000000e+00
         vertex 2.924129e+00 7.949583e+00 0.000000e+00
      endloop
   endfacet
   facet normal -0.000000e+00 0.000000e+00 -1.000000e+00
      outer loop
         vertex 2.924129e+00 7.949583e+00 0.000000e+00
         vertex 1.000017e-01 9.999797e-02 0.000000e+00
         vertex 2.924129e+00 1.174958e+01 0.000000e+00
      endloop
   endfacet
   facet normal 0.000000e+00 0.000000e+00 -1.000000e+00
      outer loop
         vertex 2.924129e+00 7.949583e+00 0.000000e+00
         vertex 2.924129e+00 1.174958e+01 0.000000e+00
         vertex 8.124135e+00 7.949583e+00 0.000000e+00
      endloop
   endfacet
   facet normal 0.000000e+00 0.000000e+00 -1.000000e+00
      outer loop
         vertex 8.124135e+00 7.949583e+00 0.000000e+00
         vertex 2.924129e+00 1.174958e+01 0.000000e+00
         vertex 8.124135e+00 1.174958e+01 0.000000e+00
      endloop
   endfacet
   facet normal 0.000000e+00 0.000000e+00 -1.000000e+00
      outer loop
         vertex 8.124135e+00 7.949583e+00 0.000000e+00
         vertex 8.124135e+00 1.174958e+01 0.000000e+00
         vertex 1.292413e+01 4.949585e+00 0.000000e+00
      endloop
   endfacet
   facet normal 0.000000e+00 0.000000e+00 -1.000000e+00
      outer loop
         vertex 1.292413e+01 4.949585e+00 0.000000e+00
         vertex 8.124135e+00 1.174958e+01 0.000000e+00
         vertex 1.292413e+01 1.474958e+01 0.000000e+00
      endloop
   endfacet
   facet normal 0.000000e+00 0.000000e+00 1.000000e+00
      outer loop
         vertex 8.124135e+00 7.949583e+00 1.000000e+01
         vertex 8.124135e+00 4.949585e+00 1.000000e+01
         vertex 1.292413e+01 4.949585e+00 1.000000e+01
      endloop
   endfacet
   facet normal 0.000000e+00 0.000000e+00 1.000000e+00
      outer loop
         vertex 1.000017e-01 9.999797e-02 1.000000e+01
         vertex 2.924129e+00 9.999797e-02 1.000000e+01
         vertex 1.000017e-01 1.474958e+01 1.000000e+01
      endloop
   endfacet
   facet normal 0.000000e+00 0.000000e+00 1.000000e+00
      outer loop
         vertex 1.000017e-01 1.474958e+01 1.000000e+01
         vertex 2.924129e+00 9.999797e-02 1.000000e+01
         vertex 2.924129e+00 7.949583e+00 1.000000e+01
      endloop
   endfacet
   facet normal 0.000000e+00 0.000000e+00 1.000000e+00
      outer loop
         vertex 1.292413e+01 1.474958e+01 1.000000e+01
         vertex 8.124135e+00 1.474958e+01 1.000000e+01
         vertex 8.124135e+00 1.174958e+01 1.000000e+01
      endloop
   endfacet
   facet normal 0.000000e+00 0.000000e+00 1.000000e+00
      outer loop
         vertex 2.924129e+00 1.474958e+01 1.000000e+01
         vertex 1.000017e-01 1.474958e+01 1.000000e+01
         vertex 2.924129e+00 1.174958e+01 1.000000e+01
      endloop
   endfacet
   facet normal 0.000000e+00 0.000000e+00 1.000000e+00
      outer loop
         vertex 2.924129e+00 1.174958e+01 1.000000e+01
         vertex 1.000017e-01 1.474958e+01 1.000000e+01
         vertex 2.924129e+00 7.949583e+00 1.000000e+01
      endloop
   endfacet
   facet normal -0.000000e+00 0.000000e+00 1.000000e+00
      outer loop
         vertex 2.924129e+00 1.174958e+01 1.000000e+01
         vertex 2.924129e+00 7.949583e+00 1.000000e+01
         vertex 8.124135e+00 1.174958e+01 1.000000e+01
      endloop
   endfacet
   facet normal 0.000000e+00 0.000000e+00 1.000000e+00
      outer loop
         vertex 8.124135e+00 1.174958e+01 1.000000e+01
         vertex 2.924129e+00 7.949583e+00 1.000000e+01
         vertex 8.124135e+00 7.949583e+00 1.000000e+01
      endloop
   endfacet
   facet normal -0.000000e+00 0.000000e+00 1.000000e+00
      outer loop
         vertex 8.124135e+00 1.174958e+01 1.000000e+01
         vertex 8.124135e+00 7.949583e+00 1.000000e+01
         vertex 1.292413e+01 1.474958e+01 1.000000e+01
      endloop
   endfacet
   facet normal 0.000000e+00 0.000000e+00 1.000000e+00
      outer loop
         vertex 1.292413e+01 1.474958e+01 1.000000e+01
         vertex 8.124135e+00 7.949583e+00 1.000000e+01
         vertex 1.292413e+01 4.949585e+00 1.000000e+01
      endloop
   endfacet
endsolid