<?xml version="1.0" encoding="utf-8"?>
<!-- Generator: Adobe Illustrator 27.4.1, SVG Export Plug-In . SVG Version: 6.00 Build 0)  -->
<svg version="1.1" xmlns="http://www.w3.org/2000/svg" xmlns:xlink="http://www.w3.org/1999/xlink" x="0px" y="0px"
	 viewBox="0 0 612 792" style="enable-background:new 0 0 612 792;" xml:space="preserve">
<style type="text/css">
	.st0{fill:none;stroke:#FF0000;stroke-width:0.25;stroke-linecap:round;stroke-linejoin:round;stroke-miterlimit:10;}
	
		.st1{fill:none;stroke:#FF0000;stroke-width:0.25;stroke-linecap:round;stroke-linejoin:round;stroke-miterlimit:10;stroke-dasharray:12.7,2.54,2.54,2.54;}
	.st2{fill:none;stroke:#000000;stroke-width:0.7087;stroke-linecap:round;stroke-linejoin:round;stroke-miterlimit:10;}
</style>
<g id="MARK">
	<g id="LINE">
		<line class="st0" x1="333.5" y1="348.98" x2="279.5" y2="348.98"/>
	</g>
	<g id="LINE_00000005958039854444657780000006239245146713008515_">
		<line class="st0" x1="333.5" y1="348.98" x2="333.5" y2="367.14"/>
	</g>
	<g id="LINE_00000072998569234203325440000016915156851175304585_">
		<line class="st0" x1="333.5" y1="367.14" x2="279.5" y2="367.14"/>
	</g>
	<g id="LINE_00000096738096706739603180000010773966639503057842_">
		<line class="st0" x1="279.5" y1="348.98" x2="279.5" y2="367.14"/>
	</g>
	<g id="LINE_00000041975847336985925430000006684988280125568142_">
		<line class="st1" x1="306.5" y1="367.14" x2="306.5" y2="348.98"/>
	</g>
	<g id="LINE_00000049223732091053225140000007920447999135916160_">
		<line class="st1" x1="333.5" y1="358.06" x2="279.5" y2="358.06"/>
	</g>
	<g id="LINE_00000017490766336579956850000015207147178732383147_">
		<line class="st1" x1="275.5" y1="358.06" x2="279.5" y2="358.06"/>
	</g>
	<g id="LINE_00000147903819194583103700000007401431279078782102_">
		<line class="st0" x1="274.5" y1="146.14" x2="274.5" y2="148.02"/>
	</g>
	<g id="LINE_00000023277951974273326970000006111694153295464094_">
		<line class="st0" x1="274.5" y1="148.02" x2="338.5" y2="148.02"/>
	</g>
	<g id="LINE_00000088099677582408842120000005980264290436746659_">
		<line class="st0" x1="338.5" y1="148.02" x2="338.5" y2="146.14"/>
	</g>
	<g id="LINE_00000163767145576068760370000016584763170602675376_">
		<line class="st0" x1="338.5" y1="146.14" x2="274.5" y2="146.14"/>
	</g>
	<g id="LINE_00000164484118999364097100000009735845717408416423_">
		<line class="st0" x1="288.5" y1="154.44" x2="288.5" y2="224.44"/>
	</g>
	<g id="LINE_00000039831809082413237460000016418919058634431933_">
		<line class="st0" x1="288.5" y1="154.44" x2="297.5" y2="154.44"/>
	</g>
	<g id="LINE_00000009557094648521048790000003980817213140558752_">
		<line class="st0" x1="297.5" y1="154.44" x2="297.5" y2="224.44"/>
	</g>
	<g id="LINE_00000090999449189985600940000012676797341765717941_">
		<line class="st0" x1="297.5" y1="224.44" x2="306.5" y2="224.44"/>
	</g>
	<g id="LINE_00000015339651643981464730000002508203038580430518_">
		<line class="st0" x1="306.5" y1="224.44" x2="306.5" y2="154.44"/>
	</g>
	<g id="LINE_00000027602184262910225540000011021586399023974052_">
		<line class="st0" x1="306.5" y1="154.44" x2="315.5" y2="154.44"/>
	</g>
	<g id="LINE_00000165219015169744706620000005372519327098373565_">
		<line class="st0" x1="315.5" y1="154.44" x2="315.5" y2="224.44"/>
	</g>
	<g id="LINE_00000114050482798474580420000004249838886286513848_">
		<line class="st0" x1="315.5" y1="224.44" x2="324.5" y2="224.44"/>
	</g>
	<g id="LINE_00000123425355394510334360000011353456049702705802_">
		<line class="st0" x1="324.5" y1="224.44" x2="324.5" y2="154.44"/>
	</g>
	<g id="POINT">
		<line class="st0" x1="306.5" y1="358.06" x2="306.5" y2="358.06"/>
	</g>
	<g id="POINT_00000034084846192446961140000005940306124491370633_">
		<line class="st0" x1="279.59" y1="348.97" x2="279.59" y2="348.97"/>
	</g>
	<g id="POINT_00000092431300099945420550000010444727483912574100_">
		<line class="st0" x1="279.59" y1="367.14" x2="279.59" y2="367.14"/>
	</g>
	<g id="POINT_00000145763559241325861050000018028440766402187656_">
		<line class="st0" x1="333.41" y1="367.14" x2="333.41" y2="367.14"/>
	</g>
	<g id="POINT_00000147208272671257599200000016510889698731276467_">
		<line class="st0" x1="333.41" y1="348.97" x2="333.41" y2="348.97"/>
	</g>
	<g id="CIRCLE">
		<circle class="st0" cx="333.41" cy="367.14" r="2.6"/>
	</g>
	<g id="CIRCLE_00000005965014864566319610000012686016291458877574_">
		<circle class="st0" cx="333.41" cy="367.14" r="2.75"/>
	</g>
	<g id="CIRCLE_00000162336574141124124810000010753694784769328571_">
		<circle class="st0" cx="279.59" cy="348.97" r="2.6"/>
	</g>
	<g id="CIRCLE_00000097477650406041302850000000465032136997005450_">
		<circle class="st0" cx="279.59" cy="348.97" r="2.75"/>
	</g>
	<g id="CIRCLE_00000039117751475266455500000014082995065068991410_">
		<circle class="st0" cx="279.59" cy="367.14" r="2.6"/>
	</g>
	<g id="CIRCLE_00000157266672059489178360000016934475218896058804_">
		<circle class="st0" cx="279.59" cy="367.14" r="2.75"/>
	</g>
	<g id="CIRCLE_00000092450812201014490260000002246166978639440030_">
		<circle class="st0" cx="333.41" cy="348.97" r="2.6"/>
	</g>
	<g id="CIRCLE_00000105404259625602181970000001339020431905304501_">
		<circle class="st0" cx="333.41" cy="348.97" r="2.75"/>
	</g>
	<g id="CIRCLE_00000057146845266344975680000008332834279641997730_">
		<circle class="st0" cx="333.41" cy="348.97" r="3.25"/>
	</g>
	<g id="CIRCLE_00000104676178470607314680000011808707705453748395_">
		<circle class="st0" cx="333.41" cy="367.14" r="3.25"/>
	</g>
	<g id="CIRCLE_00000176031310679044192350000008875218095436214718_">
		<circle class="st0" cx="279.59" cy="367.14" r="3.25"/>
	</g>
	<g id="CIRCLE_00000059302472615509348880000018196058300593938309_">
		<circle class="st0" cx="279.59" cy="348.97" r="3.25"/>
	</g>
	<g id="LINE_00000138539444036176397330000005813740034671798660_">
		<line class="st0" x1="379.19" y1="432.3" x2="379.19" y2="456.81"/>
	</g>
	<g id="LINE_00000004532794736070217380000002842326164428491694_">
		<line class="st0" x1="366.68" y1="432.3" x2="379.19" y2="432.3"/>
	</g>
	<g id="LINE_00000130620605466768280580000012531091219185723580_">
		<line class="st0" x1="366.68" y1="456.81" x2="366.68" y2="432.3"/>
	</g>
	<g id="LINE_00000078743090893966940590000003275689603003215521_">
		<line class="st0" x1="379.19" y1="456.81" x2="366.68" y2="456.81"/>
	</g>
	<g id="LINE_00000004537669239458068360000012724277423537563019_">
		<line class="st0" x1="275.56" y1="244.14" x2="275.56" y2="222.14"/>
	</g>
	<g id="LINE_00000142157892142078646580000011996875635215713180_">
		<line class="st0" x1="275.56" y1="220.14" x2="275.56" y2="198.14"/>
	</g>
	<g id="LINE_00000040533755756821029470000002685770473571044790_">
		<line class="st0" x1="275.56" y1="196.14" x2="275.56" y2="174.14"/>
	</g>
	<g id="LINE_00000017478379623231610590000012806825196852758449_">
		<line class="st0" x1="275.56" y1="172.14" x2="275.56" y2="150.14"/>
	</g>
	<g id="LINE_00000049916617772252397300000012300246736529069219_">
		<line class="st0" x1="274.5" y1="296.14" x2="338.5" y2="296.14"/>
	</g>
	<g id="LINE_00000080186772552216110460000014661891398041601946_">
		<line class="st0" x1="470.58" y1="501.14" x2="142.42" y2="501.14"/>
	</g>
	<g id="LINE_00000132798878420133228650000017252033348321431471_">
		<line class="st0" x1="275.5" y1="631.14" x2="275.5" y2="146.14"/>
	</g>
	<g id="LINE_00000080179311349222474550000006720966546964121272_">
		<line class="st0" x1="337.5" y1="631.14" x2="337.5" y2="146.14"/>
	</g>
	<g id="LINE_00000018959883872733084530000003640147438835309718_">
		<line class="st0" x1="334.89" y1="367.14" x2="334.15" y2="365.86"/>
	</g>
	<g id="LINE_00000152243625231593016890000006250035032354191525_">
		<line class="st0" x1="334.15" y1="365.86" x2="332.67" y2="365.86"/>
	</g>
	<g id="LINE_00000049928660076499830740000017072257256491307445_">
		<line class="st0" x1="331.93" y1="367.14" x2="332.67" y2="365.86"/>
	</g>
	<g id="LINE_00000066499640990081270840000006460033594406479526_">
		<line class="st0" x1="332.67" y1="368.42" x2="331.93" y2="367.14"/>
	</g>
	<g id="LINE_00000050638957349439150380000008239078747615643318_">
		<line class="st0" x1="332.67" y1="368.42" x2="334.15" y2="368.42"/>
	</g>
	<g id="LINE_00000100367388585291993070000012935274710028476593_">
		<line class="st0" x1="334.89" y1="367.14" x2="334.15" y2="368.42"/>
	</g>
	<g id="LINE_00000020361717245173162930000003908399238128270493_">
		<line class="st0" x1="281.07" y1="348.97" x2="280.33" y2="347.69"/>
	</g>
	<g id="LINE_00000157267438937685148110000016467873390995603373_">
		<line class="st0" x1="280.33" y1="347.69" x2="278.85" y2="347.69"/>
	</g>
	<g id="LINE_00000163769272068925017370000006944177635056203927_">
		<line class="st0" x1="278.11" y1="348.97" x2="278.85" y2="347.69"/>
	</g>
	<g id="LINE_00000000934741285578692310000012261418130774576063_">
		<line class="st0" x1="278.85" y1="350.25" x2="278.11" y2="348.97"/>
	</g>
	<g id="LINE_00000030455669976397930120000009124705695372745868_">
		<line class="st0" x1="278.85" y1="350.25" x2="280.33" y2="350.25"/>
	</g>
	<g id="LINE_00000014604328525823586170000011484931310834184325_">
		<line class="st0" x1="281.07" y1="348.97" x2="280.33" y2="350.25"/>
	</g>
	<g id="LINE_00000158008585859445297960000014670526795946373295_">
		<line class="st0" x1="281.07" y1="367.14" x2="280.33" y2="365.86"/>
	</g>
	<g id="LINE_00000121248305821317882080000012565055868914773669_">
		<line class="st0" x1="280.33" y1="365.86" x2="278.85" y2="365.86"/>
	</g>
	<g id="LINE_00000110430742048755011070000013301100261111392447_">
		<line class="st0" x1="278.11" y1="367.14" x2="278.85" y2="365.86"/>
	</g>
	<g id="LINE_00000052069414842187261780000017134201436453834653_">
		<line class="st0" x1="278.85" y1="368.42" x2="278.11" y2="367.14"/>
	</g>
	<g id="LINE_00000111169478301125114900000000435731248985203381_">
		<line class="st0" x1="278.85" y1="368.42" x2="280.33" y2="368.42"/>
	</g>
	<g id="LINE_00000026160818088631530680000017363518178768639664_">
		<line class="st0" x1="281.07" y1="367.14" x2="280.33" y2="368.42"/>
	</g>
	<g id="LINE_00000130635838058134168340000009026989414118268350_">
		<line class="st0" x1="334.89" y1="348.97" x2="334.15" y2="347.69"/>
	</g>
	<g id="LINE_00000124846737938021769180000011404482241522410124_">
		<line class="st0" x1="334.15" y1="347.69" x2="332.67" y2="347.69"/>
	</g>
	<g id="LINE_00000118376984609803260820000010784622462312287890_">
		<line class="st0" x1="331.93" y1="348.97" x2="332.67" y2="347.69"/>
	</g>
	<g id="LINE_00000044894654107384305430000017361368220834231733_">
		<line class="st0" x1="332.67" y1="350.25" x2="331.93" y2="348.97"/>
	</g>
	<g id="LINE_00000093155866680132484270000000700444645265099149_">
		<line class="st0" x1="332.67" y1="350.25" x2="334.15" y2="350.25"/>
	</g>
	<g id="LINE_00000103238916212682803130000012076064588003550865_">
		<line class="st0" x1="334.89" y1="348.97" x2="334.15" y2="350.25"/>
	</g>
	<g id="LINE_00000072961394776676656370000006956846297688893335_">
		<line class="st0" x1="246.32" y1="456.81" x2="246.32" y2="432.3"/>
	</g>
	<g id="LINE_00000101068896871111229610000013458953842018175159_">
		<line class="st0" x1="246.32" y1="432.3" x2="233.81" y2="432.3"/>
	</g>
	<g id="LINE_00000049203975876921241240000005632568997736546990_">
		<line class="st0" x1="233.81" y1="432.3" x2="233.81" y2="456.81"/>
	</g>
	<g id="LINE_00000169525115429668113500000017829201027808654484_">
		<line class="st0" x1="233.81" y1="456.81" x2="246.32" y2="456.81"/>
	</g>
	<g id="LINE_00000014591981382739979920000000614320412442104735_">
		<line class="st0" x1="339.6" y1="371.14" x2="273.4" y2="371.14"/>
	</g>
	<g id="ARC">
		<path class="st0" d="M334.52,367.78c0.35-0.61,0.14-1.4-0.47-1.75c-0.61-0.35-1.4-0.14-1.75,0.47s-0.14,1.4,0.47,1.75
			c0.19,0.11,0.42,0.17,0.64,0.17"/>
	</g>
	<g id="ARC_00000095315735893814211560000000566533622729408952_">
		<path class="st0" d="M280.7,349.61c0.35-0.61,0.14-1.4-0.47-1.75s-1.4-0.14-1.75,0.47c-0.35,0.61-0.14,1.4,0.47,1.75
			c0.19,0.11,0.42,0.17,0.64,0.17"/>
	</g>
	<g id="ARC_00000044860746444143705960000002881288098655940006_">
		<path class="st0" d="M280.7,367.78c0.35-0.61,0.14-1.4-0.47-1.75c-0.61-0.35-1.4-0.14-1.75,0.47c-0.35,0.61-0.14,1.4,0.47,1.75
			c0.19,0.11,0.42,0.17,0.64,0.17"/>
	</g>
	<g id="ARC_00000060023618934407322230000005782838224704838797_">
		<path class="st0" d="M334.52,349.61c0.35-0.61,0.14-1.4-0.47-1.75s-1.4-0.14-1.75,0.47s-0.14,1.4,0.47,1.75
			c0.19,0.11,0.42,0.17,0.64,0.17"/>
	</g>
</g>
<g id="CUT">
	<g id="SPLINE">
		<path class="st2" d="M335.77,172.14c0-3.67,0-7.33,0-11c0-3.67,0-7.33,0-11"/>
	</g>
	<g id="SPLINE_00000044886178281438116220000011859146346796652423_">
		<path class="st2" d="M335.77,196.14c0-3.67,0-7.33,0-11c0-3.67,0-7.33,0-11"/>
	</g>
	<g id="SPLINE_00000020383494394763878220000005061377939875927187_">
		<path class="st2" d="M335.77,220.14c0-3.67,0-7.33,0-11c0-3.67,0-7.33,0-11"/>
	</g>
	<g id="SPLINE_00000043425516691419876880000005388878405888301753_">
		<path class="st2" d="M335.77,244.14c0-3.67,0-7.33,0-11c0-3.67,0-7.33,0-11"/>
	</g>
	<g id="LINE_00000158020070097042757780000017175683152184128954_">
		<line class="st2" x1="335.75" y1="222.14" x2="337.49" y2="222.14"/>
	</g>
	<g id="LINE_00000174564644442043086600000012368412074523392659_">
		<line class="st2" x1="335.75" y1="244.14" x2="335.75" y2="222.14"/>
	</g>
	<g id="LINE_00000008132804592710103810000003863866341883227037_">
		<line class="st2" x1="337.49" y1="244.14" x2="335.75" y2="244.14"/>
	</g>
	<g id="LINE_00000150073793019459800060000000747183999574702241_">
		<line class="st2" x1="337.49" y1="222.14" x2="337.49" y2="244.14"/>
	</g>
	<g id="LINE_00000133489783277810687850000008306035352054140824_">
		<line class="st2" x1="335.75" y1="198.14" x2="337.49" y2="198.14"/>
	</g>
	<g id="LINE_00000134953001540235605940000003718896099817447587_">
		<line class="st2" x1="335.75" y1="220.14" x2="335.75" y2="198.14"/>
	</g>
	<g id="LINE_00000081637605172470067690000014607306381374766488_">
		<line class="st2" x1="337.49" y1="220.14" x2="335.75" y2="220.14"/>
	</g>
	<g id="LINE_00000096033769962677003950000013589701393793471399_">
		<line class="st2" x1="337.49" y1="198.14" x2="337.49" y2="220.14"/>
	</g>
	<g id="LINE_00000157274551513452763260000016856909943124795027_">
		<line class="st2" x1="335.75" y1="174.14" x2="337.49" y2="174.14"/>
	</g>
	<g id="LINE_00000132084101892904980500000006275724535193451710_">
		<line class="st2" x1="335.75" y1="196.14" x2="335.75" y2="174.14"/>
	</g>
	<g id="LINE_00000035531937251680185970000001642808069204692150_">
		<line class="st2" x1="337.49" y1="196.14" x2="335.75" y2="196.14"/>
	</g>
	<g id="LINE_00000143608187304296257380000017040134370211391387_">
		<line class="st2" x1="337.49" y1="174.14" x2="337.49" y2="196.14"/>
	</g>
	<g id="LINE_00000179645098527443915040000004668709866625235891_">
		<line class="st2" x1="335.75" y1="172.14" x2="335.75" y2="150.14"/>
	</g>
	<g id="LINE_00000047779165492602374850000009837497977328971440_">
		<line class="st2" x1="337.49" y1="172.14" x2="335.75" y2="172.14"/>
	</g>
	<g id="LINE_00000075857926667256020040000007812335472313481634_">
		<line class="st2" x1="337.49" y1="150.14" x2="337.49" y2="172.14"/>
	</g>
	<g id="LINE_00000175306672106583600560000011718322433671295673_">
		<line class="st2" x1="335.75" y1="150.14" x2="337.49" y2="150.14"/>
	</g>
	<g id="LINE_00000103235930249385897830000006008650143244725941_">
		<line class="st2" x1="277.25" y1="174.14" x2="277.25" y2="196.14"/>
	</g>
	<g id="LINE_00000090973823414625754110000002854086686066071468_">
		<line class="st2" x1="277.25" y1="198.14" x2="277.25" y2="220.14"/>
	</g>
	<g id="LINE_00000158737349819594609640000016434804429887205011_">
		<line class="st2" x1="277.25" y1="222.14" x2="277.25" y2="244.14"/>
	</g>
	<g id="LINE_00000036947338581471353680000002554802293170023562_">
		<line class="st2" x1="277.25" y1="150.14" x2="277.25" y2="172.14"/>
	</g>
	<g id="LINE_00000059292857583752512030000005810567137736281522_">
		<line class="st2" x1="275.56" y1="222.14" x2="277.28" y2="222.14"/>
	</g>
	<g id="LINE_00000063598698652085746080000006185895852138146723_">
		<line class="st2" x1="277.28" y1="244.14" x2="275.56" y2="244.14"/>
	</g>
	<g id="LINE_00000183955445269426478390000010705353207885116335_">
		<line class="st2" x1="277.28" y1="222.14" x2="277.28" y2="244.14"/>
	</g>
	<g id="LINE_00000052093569204020592110000016572890998799101066_">
		<line class="st2" x1="275.56" y1="198.14" x2="277.28" y2="198.14"/>
	</g>
	<g id="LINE_00000100374497415375482420000011651708265825621643_">
		<line class="st2" x1="277.28" y1="220.14" x2="275.56" y2="220.14"/>
	</g>
	<g id="LINE_00000146476923935067234010000014661039743419869881_">
		<line class="st2" x1="277.28" y1="198.14" x2="277.28" y2="220.14"/>
	</g>
	<g id="LINE_00000139981272174915160850000000261316427287730319_">
		<line class="st2" x1="275.56" y1="174.14" x2="277.28" y2="174.14"/>
	</g>
	<g id="LINE_00000023962998183400230010000015405772223530089347_">
		<line class="st2" x1="277.28" y1="196.14" x2="275.56" y2="196.14"/>
	</g>
	<g id="LINE_00000060738846324311563380000017151617935840233401_">
		<line class="st2" x1="277.28" y1="174.14" x2="277.28" y2="196.14"/>
	</g>
	<g id="LINE_00000158737454269932915730000015274091623119503753_">
		<line class="st2" x1="277.28" y1="150.14" x2="277.28" y2="172.14"/>
	</g>
	<g id="LINE_00000099636156735908992960000014132232175717873311_">
		<line class="st2" x1="275.56" y1="150.14" x2="277.28" y2="150.14"/>
	</g>
	<g id="LINE_00000134970193844568340590000007019603914398828479_">
		<line class="st2" x1="277.28" y1="172.14" x2="275.56" y2="172.14"/>
	</g>
	<g id="SPLINE_00000067227864527260156540000017515541973882718384_">
		<path class="st2" d="M339.6,371.14c3.13,0.03,6.26,0.05,9.38,0.15c2.78,0.09,5.56,0.24,8.33,0.45c2.45,0.19,4.9,0.43,7.34,0.74
			c2.15,0.27,4.29,0.61,6.42,1.02c1.87,0.36,3.72,0.78,5.56,1.29c1.58,0.44,3.15,0.94,4.69,1.52c1.36,0.52,2.69,1.1,3.98,1.77
			c1.15,0.6,2.27,1.26,3.33,2c0.97,0.68,1.89,1.42,2.75,2.23c1.09,1.03,2.07,2.17,2.92,3.4c0.82,1.19,1.52,2.47,2.1,3.79
			c0.59,1.35,1.06,2.74,1.44,4.16c0.4,1.48,0.69,2.99,0.93,4.51c0.25,1.61,0.43,3.22,0.57,4.84c0.19,2.16,0.33,4.32,0.46,6.48
			c0.14,2.31,0.27,4.62,0.45,6.92c0.19,2.45,0.42,4.89,0.74,7.33c0.34,2.58,0.77,5.15,1.33,7.69c0.44,2,0.96,3.99,1.56,5.95
			c0.64,2.07,1.36,4.11,2.19,6.11c0.88,2.13,1.86,4.22,2.94,6.26c1.16,2.19,2.44,4.32,3.81,6.39c1.5,2.25,3.11,4.41,4.82,6.5
			c1.87,2.29,3.86,4.49,5.94,6.6c1.79,1.81,3.64,3.56,5.54,5.24c2.07,1.83,4.2,3.59,6.38,5.28c2.37,1.84,4.8,3.61,7.27,5.31
			c2.69,1.85,5.44,3.63,8.23,5.34c3.04,1.86,6.12,3.65,9.25,5.35c3.41,1.85,6.87,3.61,10.33,5.36"/>
	</g>
	<g id="SPLINE_00000096058320168799518210000016044300805798945165_">
		<path class="st2" d="M142.42,501.14c3.44,0.05,6.87,0.11,10.3,0.3c3.17,0.18,6.34,0.47,9.5,0.88c2.93,0.37,5.84,0.84,8.74,1.42
			c2.69,0.54,5.37,1.18,8.01,1.93c2.47,0.7,4.92,1.5,7.32,2.4c2.94,1.11,5.82,2.37,8.61,3.81c2.61,1.34,5.14,2.84,7.57,4.49
			c2.31,1.56,4.52,3.26,6.62,5.09c2.3,1.99,4.46,4.14,6.48,6.41c1.96,2.21,3.79,4.55,5.48,6.98c1.66,2.39,3.2,4.88,4.61,7.43
			c1.4,2.53,2.68,5.13,3.86,7.77c1.17,2.63,2.24,5.29,3.23,7.99c0.98,2.68,1.88,5.38,2.72,8.11c0.99,3.22,1.91,6.46,2.77,9.72
			c0.84,3.17,1.64,6.34,2.43,9.52c0.76,3.05,1.52,6.09,2.31,9.13c0.75,2.86,1.53,5.72,2.39,8.55c0.8,2.62,1.68,5.22,2.69,7.77
			c0.78,1.95,1.64,3.88,2.62,5.74c0.91,1.72,1.93,3.39,3.1,4.95c1.1,1.46,2.33,2.83,3.7,4.04c1.01,0.89,2.09,1.69,3.24,2.37
			c1.17,0.7,2.41,1.28,3.7,1.75c1.36,0.5,2.78,0.87,4.21,1.09c1.58,0.24,3.17,0.31,4.77,0.37"/>
	</g>
	<g id="SPLINE_00000172400918673813212600000009003322726692749184_">
		<path class="st2" d="M470.58,501.14c-3.44,0.05-6.87,0.11-10.3,0.3c-3.17,0.18-6.34,0.47-9.5,0.88c-2.93,0.37-5.84,0.84-8.74,1.42
			c-2.69,0.54-5.37,1.18-8.01,1.93c-2.47,0.7-4.92,1.5-7.32,2.4c-2.94,1.11-5.82,2.37-8.61,3.81c-2.61,1.34-5.14,2.84-7.57,4.49
			c-2.31,1.56-4.52,3.26-6.62,5.09c-2.3,1.99-4.46,4.14-6.48,6.41c-1.96,2.21-3.79,4.55-5.48,6.98c-1.66,2.39-3.2,4.88-4.61,7.43
			c-1.4,2.53-2.68,5.13-3.86,7.77c-1.17,2.63-2.24,5.29-3.23,7.99c-0.98,2.68-1.88,5.38-2.72,8.11c-0.99,3.22-1.91,6.46-2.77,9.72
			c-0.84,3.17-1.64,6.34-2.43,9.52c-0.76,3.05-1.52,6.09-2.31,9.13c-0.75,2.86-1.53,5.72-2.39,8.55c-0.8,2.62-1.68,5.22-2.69,7.77
			c-0.78,1.95-1.64,3.88-2.62,5.74c-0.91,1.72-1.93,3.39-3.1,4.95c-1.1,1.46-2.33,2.83-3.7,4.04c-1.01,0.89-2.09,1.69-3.24,2.37
			c-1.17,0.7-2.41,1.28-3.7,1.75c-1.36,0.5-2.78,0.87-4.21,1.09c-1.58,0.24-3.17,0.31-4.77,0.37"/>
	</g>
	<g id="SPLINE_00000142855532391337543090000005287919190212724157_">
		<path class="st2" d="M273.4,371.14c-3.13,0.03-6.26,0.05-9.38,0.15c-2.78,0.09-5.56,0.24-8.33,0.45c-2.45,0.19-4.9,0.43-7.34,0.74
			c-2.15,0.27-4.29,0.61-6.42,1.02c-1.87,0.36-3.72,0.78-5.56,1.29c-1.58,0.44-3.15,0.94-4.69,1.52c-1.36,0.52-2.69,1.1-3.98,1.77
			c-1.15,0.6-2.27,1.26-3.33,2c-0.97,0.68-1.89,1.42-2.75,2.23c-1.09,1.03-2.07,2.17-2.92,3.4c-0.82,1.19-1.52,2.47-2.1,3.79
			c-0.59,1.35-1.06,2.74-1.44,4.16c-0.4,1.48-0.69,2.99-0.93,4.51c-0.25,1.61-0.43,3.22-0.57,4.84c-0.19,2.16-0.33,4.32-0.46,6.48
			c-0.14,2.31-0.27,4.62-0.45,6.92c-0.19,2.45-0.42,4.89-0.74,7.33c-0.34,2.58-0.77,5.15-1.33,7.69c-0.44,2-0.96,3.99-1.56,5.95
			c-0.64,2.07-1.36,4.11-2.19,6.11c-0.88,2.13-1.86,4.22-2.94,6.26c-1.16,2.19-2.44,4.32-3.81,6.39c-1.5,2.25-3.11,4.41-4.82,6.5
			c-1.87,2.29-3.86,4.49-5.94,6.6c-1.79,1.81-3.64,3.56-5.54,5.24c-2.07,1.83-4.2,3.59-6.38,5.28c-2.37,1.84-4.8,3.61-7.27,5.31
			c-2.69,1.85-5.44,3.63-8.23,5.34c-3.04,1.86-6.12,3.65-9.25,5.35c-3.41,1.85-6.87,3.61-10.33,5.36"/>
	</g>
	<g id="LINE_00000003810949729006220300000012677537389197455773_">
		<line class="st2" x1="338.5" y1="146.14" x2="274.5" y2="146.14"/>
	</g>
	<g id="LINE_00000135683088444320795190000017111498369501500033_">
		<line class="st2" x1="339.6" y1="631.14" x2="273.4" y2="631.14"/>
	</g>
	<g id="LINE_00000017499533119346947980000007890326390054967996_">
		<line class="st2" x1="274.5" y1="371.14" x2="274.5" y2="146.14"/>
	</g>
	<g id="LINE_00000034799949396036698740000009371724863765218193_">
		<line class="st2" x1="338.5" y1="371.14" x2="338.5" y2="146.14"/>
	</g>
</g>
</svg>
