  0
SECTION
  2
HEADER
  9
$ACADVER
  1
AC1015
  9
$ACADMAINTVER
 70
     6
  9
$DWGCODEPAGE
  3
ANSI_1252
  9
$INSBASE
 10
0.0
 20
0.0
 30
0.0
  9
$EXTMIN
 10
-239.3767480655
 20
-348.7007828432
 30
0.0
  9
$EXTMAX
 10
88.7830264707
 20
136.2992171568
 30
0.0
  9
$LIMMIN
 10
0.0
 20
0.0
  9
$LIMMAX
 10
420.0
 20
297.0
  9
$ORTHOMODE
 70
     0
  9
$REGENMODE
 70
     1
  9
$FILLMODE
 70
     1
  9
$QTEXTMODE
 70
     0
  9
$MIRRTEXT
 70
     1
  9
$LTSCALE
 40
1.0
  9
$ATTMODE
 70
     1
  9
$TEXTSIZE
 40
3.5
  9
$TRACEWID
 40
1.0
  9
$TEXTSTYLE
  7
Standard
  9
$CLAYER
  8
0
  9
$CELTYPE
  6
ByLayer
  9
$CECOLOR
 62
   256
  9
$CELTSCALE
 40
1.0
  9
$DISPSILH
 70
     0
  9
$DIMSCALE
 40
1.0
  9
$DIMASZ
 40
3.302
  9
$DIMEXO
 40
0.0
  9
$DIMDLI
 40
3.75
  9
$DIMRND
 40
0.0
  9
$DIMDLE
 40
0.0
  9
$DIMEXE
 40
1.0
  9
$DIMTP
 40
0.0
  9
$DIMTM
 40
0.0
  9
$DIMTXT
 40
3.5
  9
$DIMCEN
 40
2.5
  9
$DIMTSZ
 40
0.0
  9
$DIMTOL
 70
     0
  9
$DIMLIM
 70
     0
  9
$DIMTIH
 70
     1
  9
$DIMTOH
 70
     1
  9
$DIMSE1
 70
     0
  9
$DIMSE2
 70
     0
  9
$DIMTAD
 70
     1
  9
$DIMZIN
 70
     1
  9
$DIMBLK
  1

  9
$DIMASO
 70
     1
  9
$DIMSHO
 70
     1
  9
$DIMPOST
  1

  9
$DIMAPOST
  1

  9
$DIMALT
 70
     0
  9
$DIMALTD
 70
     3
  9
$DIMALTF
 40
0.0393700787
  9
$DIMLFAC
 40
1.0
  9
$DIMTOFL
 70
     1
  9
$DIMTVP
 40
0.0
  9
$DIMTIX
 70
     0
  9
$DIMSOXD
 70
     0
  9
$DIMSAH
 70
     0
  9
$DIMBLK1
  1

  9
$DIMBLK2
  1

  9
$DIMSTYLE
  2
ISO-25
  9
$DIMCLRD
 70
     0
  9
$DIMCLRE
 70
     0
  9
$DIMCLRT
 70
     0
  9
$DIMTFAC
 40
1.0
  9
$DIMGAP
 40
1.524
  9
$DIMJUST
 70
     0
  9
$DIMSD1
 70
     0
  9
$DIMSD2
 70
     0
  9
$DIMTOLJ
 70
     0
  9
$DIMTZIN
 70
     1
  9
$DIMALTZ
 70
     0
  9
$DIMALTTZ
 70
     0
  9
$DIMUPT
 70
     0
  9
$DIMDEC
 70
     2
  9
$DIMTDEC
 70
     2
  9
$DIMALTU
 70
     2
  9
$DIMALTTD
 70
     3
  9
$DIMTXSTY
  7
Standard
  9
$DIMAUNIT
 70
     0
  9
$DIMADEC
 70
     2
  9
$DIMALTRND
 40
0.0
  9
$DIMAZIN
 70
     0
  9
$DIMDSEP
 70
    44
  9
$DIMATFIT
 70
     3
  9
$DIMFRAC
 70
     0
  9
$DIMLDRBLK
  1

  9
$DIMLUNIT
 70
     2
  9
$DIMLWD
 70
    -2
  9
$DIMLWE
 70
    -2
  9
$DIMTMOVE
 70
     0
  9
$LUNITS
 70
     2
  9
$LUPREC
 70
     2
  9
$SKETCHINC
 40
1.0
  9
$FILLETRAD
 40
0.0
  9
$AUNITS
 70
     0
  9
$AUPREC
 70
     2
  9
$MENU
  1
.
  9
$ELEVATION
 40
0.0
  9
$PELEVATION
 40
0.0
  9
$THICKNESS
 40
0.0
  9
$LIMCHECK
 70
     0
  9
$CHAMFERA
 40
0.0
  9
$CHAMFERB
 40
0.0
  9
$CHAMFERC
 40
0.0
  9
$CHAMFERD
 40
0.0
  9
$SKPOLY
 70
     0
  9
$TDCREATE
 40
2460062.473841459
  9
$TDUCREATE
 40
2460062.390508125
  9
$TDUPDATE
 40
2460062.474656921
  9
$TDUUPDATE
 40
2460062.391323588
  9
$TDINDWG
 40
0.0000000116
  9
$TDUSRTIMER
 40
0.0000000116
  9
$USRTIMER
 70
     1
  9
$ANGBASE
 50
0.0
  9
$ANGDIR
 70
     0
  9
$PDMODE
 70
     0
  9
$PDSIZE
 40
-1.0
  9
$PLINEWID
 40
0.0
  9
$SPLFRAME
 70
     0
  9
$SPLINETYPE
 70
     6
  9
$SPLINESEGS
 70
     8
  9
$HANDSEED
  5
191
  9
$SURFTAB1
 70
     6
  9
$SURFTAB2
 70
     6
  9
$SURFTYPE
 70
     6
  9
$SURFU
 70
     6
  9
$SURFV
 70
     6
  9
$UCSBASE
  2

  9
$UCSNAME
  2

  9
$UCSORG
 10
0.0
 20
0.0
 30
0.0
  9
$UCSXDIR
 10
1.0
 20
0.0
 30
0.0
  9
$UCSYDIR
 10
0.0
 20
1.0
 30
0.0
  9
$UCSORTHOREF
  2

  9
$UCSORTHOVIEW
 70
     0
  9
$UCSORGTOP
 10
0.0
 20
0.0
 30
0.0
  9
$UCSORGBOTTOM
 10
0.0
 20
0.0
 30
0.0
  9
$UCSORGLEFT
 10
0.0
 20
0.0
 30
0.0
  9
$UCSORGRIGHT
 10
0.0
 20
0.0
 30
0.0
  9
$UCSORGFRONT
 10
0.0
 20
0.0
 30
0.0
  9
$UCSORGBACK
 10
0.0
 20
0.0
 30
0.0
  9
$PUCSBASE
  2

  9
$PUCSNAME
  2

  9
$PUCSORG
 10
0.0
 20
0.0
 30
0.0
  9
$PUCSXDIR
 10
1.0
 20
0.0
 30
0.0
  9
$PUCSYDIR
 10
0.0
 20
1.0
 30
0.0
  9
$PUCSORTHOREF
  2

  9
$PUCSORTHOVIEW
 70
     0
  9
$PUCSORGTOP
 10
0.0
 20
0.0
 30
0.0
  9
$PUCSORGBOTTOM
 10
0.0
 20
0.0
 30
0.0
  9
$PUCSORGLEFT
 10
0.0
 20
0.0
 30
0.0
  9
$PUCSORGRIGHT
 10
0.0
 20
0.0
 30
0.0
  9
$PUCSORGFRONT
 10
0.0
 20
0.0
 30
0.0
  9
$PUCSORGBACK
 10
0.0
 20
0.0
 30
0.0
  9
$USERI1
 70
     0
  9
$USERI2
 70
     0
  9
$USERI3
 70
     0
  9
$USERI4
 70
     0
  9
$USERI5
 70
     0
  9
$USERR1
 40
0.0
  9
$USERR2
 40
0.0
  9
$USERR3
 40
0.0
  9
$USERR4
 40
0.0
  9
$USERR5
 40
0.0
  9
$WORLDVIEW
 70
     1
  9
$SHADEDGE
 70
     3
  9
$SHADEDIF
 70
    70
  9
$TILEMODE
 70
     1
  9
$MAXACTVP
 70
    64
  9
$PINSBASE
 10
0.0
 20
0.0
 30
0.0
  9
$PLIMCHECK
 70
     0
  9
$PEXTMIN
 10
1.0000000000E+20
 20
1.0000000000E+20
 30
1.0000000000E+20
  9
$PEXTMAX
 10
-1.0000000000E+20
 20
-1.0000000000E+20
 30
-1.0000000000E+20
  9
$PLIMMIN
 10
0.0
 20
0.0
  9
$PLIMMAX
 10
420.0
 20
297.0
  9
$UNITMODE
 70
     0
  9
$VISRETAIN
 70
     1
  9
$PLINEGEN
 70
     0
  9
$PSLTSCALE
 70
     1
  9
$TREEDEPTH
 70
  3020
  9
$CMLSTYLE
  2
Standard
  9
$CMLJUST
 70
     0
  9
$CMLSCALE
 40
20.0
  9
$PROXYGRAPHICS
 70
     1
  9
$MEASUREMENT
 70
     1
  9
$CELWEIGHT
370
    -1
  9
$ENDCAPS
280
     0
  9
$JOINSTYLE
280
     0
  9
$LWDISPLAY
290
     1
  9
$INSUNITS
 70
     4
  9
$HYPERLINKBASE
  1

  9
$STYLESHEET
  1

  9
$XEDIT
290
     1
  9
$CEPSNTYPE
380
     0
  9
$PSTYLEMODE
290
     1
  9
$FINGERPRINTGUID
  2
{fcbb06d4-b8fc-466d-abf7-138f9e9ae3a2}
  9
$VERSIONGUID
  2
{FAEB1C32-E019-11D5-929B-00C0DF256EC4}
  9
$EXTNAMES
290
     1
  9
$PSVPSCALE
 40
0.0
  9
$OLESTARTUP
290
     0
  0
ENDSEC
  0
SECTION
  2
CLASSES
  0
CLASS
  1
ACDBDICTIONARYWDFLT
  2
AcDbDictionaryWithDefault
  3
ObjectDBX Classes
 90
        0
280
     0
281
     0
  0
CLASS
  1
VISUALSTYLE
  2
AcDbVisualStyle
  3
ObjectDBX Classes
 90
     4095
280
     0
281
     0
  0
CLASS
  1
MATERIAL
  2
AcDbMaterial
  3
ObjectDBX Classes
 90
     1153
280
     0
281
     0
  0
CLASS
  1
SCALE
  2
AcDbScale
  3
ObjectDBX Classes
 90
     1153
280
     0
281
     0
  0
CLASS
  1
TABLESTYLE
  2
AcDbTableStyle
  3
ObjectDBX Classes
 90
     4095
280
     0
281
     0
  0
CLASS
  1
MLEADERSTYLE
  2
AcDbMLeaderStyle
  3
ACDB_MLEADERSTYLE_CLASS
 90
     4095
280
     0
281
     0
  0
CLASS
  1
SUN
  2
AcDbSun
  3
SCENEOE
 90
     1153
280
     0
281
     0
  0
CLASS
  1
ACDBPLACEHOLDER
  2
AcDbPlaceHolder
  3
ObjectDBX Classes
 90
        0
280
     0
281
     0
  0
CLASS
  1
LAYOUT
  2
AcDbLayout
  3
ObjectDBX Classes
 90
        0
280
     0
281
     0
  0
ENDSEC
  0
SECTION
  2
TABLES
  0
TABLE
  2
VPORT
  5
8
330
0
100
AcDbSymbolTable
 70
     1
  0
VPORT
  5
29
330
8
100
AcDbSymbolTableRecord
100
AcDbViewportTableRecord
  2
*Active
 70
     0
 10
0.0
 20
0.0
 11
1.0
 21
1.0
 12
-75.2968607974
 22
-106.2007828432
 13
0.0
 23
0.0
 14
10.0
 24
10.0
 15
10.0
 25
10.0
 16
0.0
 26
0.0
 36
1.0
 17
0.0
 27
0.0
 37
0.0
 40
494.7
 41
0.6766180918
 42
50.0
 43
0.0
 44
0.0
 50
0.0
 51
0.0
 71
     0
 72
   100
 73
     1
 74
     3
 75
     0
 76
     0
 77
     0
 78
     0
281
     0
 65
     1
110
0.0
120
0.0
130
0.0
111
1.0
121
0.0
131
0.0
112
0.0
122
1.0
132
0.0
 79
     0
146
0.0
  0
ENDTAB
  0
TABLE
  2
LTYPE
  5
5
330
0
100
AcDbSymbolTable
 70
     6
  0
LTYPE
  5
14
330
5
100
AcDbSymbolTableRecord
100
AcDbLinetypeTableRecord
  2
ByBlock
 70
     0
  3

 72
    65
 73
     0
 40
0.0
  0
LTYPE
  5
15
330
5
100
AcDbSymbolTableRecord
100
AcDbLinetypeTableRecord
  2
ByLayer
 70
     0
  3

 72
    65
 73
     0
 40
0.0
  0
LTYPE
  5
16
330
5
100
AcDbSymbolTableRecord
100
AcDbLinetypeTableRecord
  2
Continuous
 70
     0
  3
Solid line
 72
    65
 73
     0
 40
0.0
  0
LTYPE
  5
5E
330
5
100
AcDbSymbolTableRecord
100
AcDbLinetypeTableRecord
  2
HIDDEN
 70
     0
  3
Hidden __ __ __ __ __ __ __ __ __ __ __ __ __ __
 72
    65
 73
     2
 40
1.905
 49
1.27
 74
     0
 49
-0.635
 74
     0
  0
LTYPE
  5
5F
330
5
100
AcDbSymbolTableRecord
100
AcDbLinetypeTableRecord
  2
PHANTOM
 70
     0
  3
Phantom ______  __  __  ______  __  __  ______
 72
    65
 73
     6
 40
12.7
 49
6.35
 74
     0
 49
-1.27
 74
     0
 49
1.27
 74
     0
 49
-1.27
 74
     0
 49
1.27
 74
     0
 49
-1.27
 74
     0
  0
LTYPE
  5
60
330
5
100
AcDbSymbolTableRecord
100
AcDbLinetypeTableRecord
  2
CENTER
 70
     0
  3
Center ____ _ ____ _ ____ _ ____ _ ____ _ ____
 72
    65
 73
     4
 40
10.16
 49
6.35
 74
     0
 49
-1.27
 74
     0
 49
1.27
 74
     0
 49
-1.27
 74
     0
  0
LTYPE
  5
61
330
5
100
AcDbSymbolTableRecord
100
AcDbLinetypeTableRecord
  2
CENTERX2
 70
     0
  3
Center (2x) ________  __  ________  __  _____
 72
    65
 73
     4
 40
20.32
 49
12.7
 74
     0
 49
-2.54
 74
     0
 49
2.54
 74
     0
 49
-2.54
 74
     0
  0
LTYPE
  5
62
330
5
100
AcDbSymbolTableRecord
100
AcDbLinetypeTableRecord
  2
DOT2
 70
     0
  3
Dot (.5x) ........................................
 72
    65
 73
     2
 40
0.635
 49
0.0
 74
     0
 49
-0.635
 74
     0
  0
ENDTAB
  0
TABLE
  2
LAYER
  5
2
330
0
100
AcDbSymbolTable
 70
     1
  0
LAYER
  5
10
330
2
100
AcDbSymbolTableRecord
100
AcDbLayerTableRecord
  2
0
 70
     0
 62
     7
  6
Continuous
370
    -3
390
F
  0
ENDTAB
  0
TABLE
  2
STYLE
  5
3
330
0
100
AcDbSymbolTable
 70
     2
  0
STYLE
  5
11
330
3
100
AcDbSymbolTableRecord
100
AcDbTextStyleTableRecord
  2
Standard
 70
     0
 40
0.0
 41
1.0
 50
0.0
 71
     0
 42
3.5
  3
txt
  4

  0
STYLE
  5
18D
330
3
100
AcDbSymbolTableRecord
100
AcDbTextStyleTableRecord
  2
SLDTEXTSTYLE0
 70
     0
 40
0.0
 41
0.7
 50
0.0
 71
     0
 42
3.5
  3
TXT
  4

  0
ENDTAB
  0
TABLE
  2
VIEW
  5
6
330
0
100
AcDbSymbolTable
 70
     0
  0
ENDTAB
  0
TABLE
  2
UCS
  5
7
330
0
100
AcDbSymbolTable
 70
     0
  0
ENDTAB
  0
TABLE
  2
APPID
  5
9
330
0
100
AcDbSymbolTable
 70
     1
  0
APPID
  5
12
330
9
100
AcDbSymbolTableRecord
100
AcDbRegAppTableRecord
  2
ACAD
 70
     0
  0
ENDTAB
  0
TABLE
  2
DIMSTYLE
  5
A
330
0
100
AcDbSymbolTable
 70
     1
100
AcDbDimStyleTable
  0
DIMSTYLE
105
27
330
A
100
AcDbSymbolTableRecord
100
AcDbDimStyleTableRecord
  2
ISO-25
 70
     0
 41
2.5
 42
0.625
 43
3.75
 44
1.25
 73
     0
 74
     0
 77
     1
 78
     8
140
2.5
141
2.5
143
0.0393700787
147
0.625
171
     3
172
     1
178
     0
271
     2
272
     2
274
     3
278
    44
283
     0
284
     8
340
11
  0
ENDTAB
  0
TABLE
  2
BLOCK_RECORD
  5
1
330
0
100
AcDbSymbolTable
 70
     1
  0
BLOCK_RECORD
  5
1F
330
1
100
AcDbSymbolTableRecord
100
AcDbBlockTableRecord
  2
*Model_Space
340
22
  0
BLOCK_RECORD
  5
1B
330
1
100
AcDbSymbolTableRecord
100
AcDbBlockTableRecord
  2
*Paper_Space
340
1E
  0
BLOCK_RECORD
  5
23
330
1
100
AcDbSymbolTableRecord
100
AcDbBlockTableRecord
  2
*Paper_Space0
340
26
  0
ENDTAB
  0
ENDSEC
  0
SECTION
  2
BLOCKS
  0
BLOCK
  5
20
330
1F
100
AcDbEntity
  8
0
100
AcDbBlockBegin
  2
*Model_Space
 70
     0
 10
0.0
 20
0.0
 30
0.0
  3
*Model_Space
  1

  0
ENDBLK
  5
21
330
1F
100
AcDbEntity
  8
0
100
AcDbBlockEnd
  0
BLOCK
  5
1C
330
1B
100
AcDbEntity
 67
     1
  8
0
100
AcDbBlockBegin
  2
*Paper_Space
 70
     0
 10
0.0
 20
0.0
 30
0.0
  3
*Paper_Space
  1

  0
ENDBLK
  5
1D
330
1B
100
AcDbEntity
 67
     1
  8
0
100
AcDbBlockEnd
  0
BLOCK
  5
24
330
23
100
AcDbEntity
  8
0
100
AcDbBlockBegin
  2
*Paper_Space0
 70
     0
 10
0.0
 20
0.0
 30
0.0
  3
*Paper_Space0
  1

  0
ENDBLK
  5
25
330
23
100
AcDbEntity
  8
0
100
AcDbBlockEnd
  0
ENDSEC
  0
SECTION
  2
ENTITIES
  0
LINE
  5
63
330
1F
100
AcDbEntity
  8
0
  6
Continuous
 62
     7
100
AcDbLine
 10
-48.2968607974
 20
-66.5358499079
 30
0.0
 11
-102.2968607974
 21
-66.5358499079
 31
0.0
  0
LINE
  5
64
330
1F
100
AcDbEntity
  8
0
  6
Continuous
 62
     7
100
AcDbLine
 10
-48.2968607974
 20
-66.5358499079
 30
0.0
 11
-48.2968607974
 21
-84.7007828432
 31
0.0
  0
LINE
  5
65
330
1F
100
AcDbEntity
  8
0
  6
Continuous
 62
     7
100
AcDbLine
 10
-48.2968607974
 20
-84.7007828432
 30
0.0
 11
-102.2968607974
 21
-84.7007828432
 31
0.0
  0
LINE
  5
66
330
1F
100
AcDbEntity
  8
0
  6
Continuous
 62
     7
100
AcDbLine
 10
-102.2968607974
 20
-66.5358499079
 30
0.0
 11
-102.2968607974
 21
-84.7007828432
 31
0.0
  0
LINE
  5
67
330
1F
100
AcDbEntity
  8
0
  6
CENTERX2
 62
     7
100
AcDbLine
 10
-75.2968607974
 20
-84.7007828432
 30
0.0
 11
-75.2968607974
 21
-66.5358499079
 31
0.0
  0
LINE
  5
68
330
1F
100
AcDbEntity
  8
0
  6
CENTERX2
 62
     7
100
AcDbLine
 10
-48.2968607974
 20
-75.6183163756
 30
0.0
 11
-102.2968607974
 21
-75.6183163756
 31
0.0
  0
LINE
  5
69
330
1F
100
AcDbEntity
  8
0
  6
CENTERX2
 62
     7
100
AcDbLine
 10
-106.2968607974
 20
-75.6183163756
 30
0.0
 11
-102.2968607974
 21
-75.6183163756
 31
0.0
  0
LINE
  5
6A
330
1F
100
AcDbEntity
  8
0
  6
Continuous
 62
     7
100
AcDbLine
 10
-107.2968607974
 20
136.2992171568
 30
0.0
 11
-107.2968607974
 21
134.4195349147
 31
0.0
  0
LINE
  5
6B
330
1F
100
AcDbEntity
  8
0
  6
Continuous
 62
     7
100
AcDbLine
 10
-107.2968607974
 20
134.4195349147
 30
0.0
 11
-43.2968607974
 21
134.4195349147
 31
0.0
  0
LINE
  5
6C
330
1F
100
AcDbEntity
  8
0
  6
Continuous
 62
     7
100
AcDbLine
 10
-43.2968607974
 20
134.4195349147
 30
0.0
 11
-43.2968607974
 21
136.2992171568
 31
0.0
  0
LINE
  5
6D
330
1F
100
AcDbEntity
  8
0
  6
Continuous
 62
     7
100
AcDbLine
 10
-43.2968607974
 20
136.2992171568
 30
0.0
 11
-107.2968607974
 21
136.2992171568
 31
0.0
  0
LINE
  5
6E
330
1F
100
AcDbEntity
  8
0
  6
Continuous
 62
     7
100
AcDbLine
 10
-93.2968607974
 20
128.0063706472
 30
0.0
 11
-93.2968607974
 21
58.0063706472
 31
0.0
  0
LINE
  5
6F
330
1F
100
AcDbEntity
  8
0
  6
Continuous
 62
     7
100
AcDbLine
 10
-93.2968607974
 20
128.0063706472
 30
0.0
 11
-84.2968607974
 21
128.0063706472
 31
0.0
  0
LINE
  5
70
330
1F
100
AcDbEntity
  8
0
  6
Continuous
 62
     7
100
AcDbLine
 10
-84.2968607974
 20
128.0063706472
 30
0.0
 11
-84.2968607974
 21
58.0063706472
 31
0.0
  0
LINE
  5
71
330
1F
100
AcDbEntity
  8
0
  6
Continuous
 62
     7
100
AcDbLine
 10
-84.2968607974
 20
58.0063706472
 30
0.0
 11
-75.2968607974
 21
58.0063706472
 31
0.0
  0
LINE
  5
72
330
1F
100
AcDbEntity
  8
0
  6
Continuous
 62
     7
100
AcDbLine
 10
-75.2968607974
 20
58.0063706472
 30
0.0
 11
-75.2968607974
 21
128.0063706472
 31
0.0
  0
LINE
  5
73
330
1F
100
AcDbEntity
  8
0
  6
Continuous
 62
     7
100
AcDbLine
 10
-75.2968607974
 20
128.0063706472
 30
0.0
 11
-66.2968607974
 21
128.0063706472
 31
0.0
  0
LINE
  5
74
330
1F
100
AcDbEntity
  8
0
  6
Continuous
 62
     7
100
AcDbLine
 10
-66.2968607974
 20
128.0063706472
 30
0.0
 11
-66.2968607974
 21
58.0063706472
 31
0.0
  0
LINE
  5
75
330
1F
100
AcDbEntity
  8
0
  6
Continuous
 62
     7
100
AcDbLine
 10
-66.2968607974
 20
58.0063706472
 30
0.0
 11
-57.2968607974
 21
58.0063706472
 31
0.0
  0
LINE
  5
76
330
1F
100
AcDbEntity
  8
0
  6
Continuous
 62
     7
100
AcDbLine
 10
-57.2968607974
 20
58.0063706472
 30
0.0
 11
-57.2968607974
 21
128.0063706472
 31
0.0
  0
POINT
  5
77
330
1F
100
AcDbEntity
  8
0
  6
Continuous
 62
     7
100
AcDbPoint
 10
-75.2968607974
 20
-75.6183163756
 30
0.0
  0
POINT
  5
78
330
1F
100
AcDbEntity
  8
0
  6
Continuous
 62
     7
100
AcDbPoint
 10
-102.2096085069
 20
-66.5317623055
 30
0.0
  0
POINT
  5
79
330
1F
100
AcDbEntity
  8
0
  6
Continuous
 62
     7
100
AcDbPoint
 10
-102.2096085069
 20
-84.7007828432
 30
0.0
  0
POINT
  5
7A
330
1F
100
AcDbEntity
  8
0
  6
Continuous
 62
     7
100
AcDbPoint
 10
-48.3841130878
 20
-84.7007828432
 30
0.0
  0
POINT
  5
7B
330
1F
100
AcDbEntity
  8
0
  6
Continuous
 62
     7
100
AcDbPoint
 10
-48.3841130878
 20
-66.5317623055
 30
0.0
  0
SPLINE
  5
7F
330
1F
100
AcDbEntity
  8
0
  6
Continuous
 62
     7
370
    25
100
AcDbSpline
210
0.0
220
0.0
230
1.0
 70
     8
 71
     3
 72
     9
 73
     5
 74
     0
 42
0.00000001
 43
0.00000001
 40
0.0
 40
0.0
 40
0.0
 40
0.0
 40
0.499999993474404
 40
1.0
 40
1.0
 40
1.0
 40
1.0
 10
-46.0305837296024
 20
110.2992171568067
 30
0.0
 10
-46.03058889958858
 20
113.9658837756188
 30
0.0
 10
-46.03059923956107
 20
121.2992171089518
 30
0.0
 10
-46.03058889958867
 20
128.6325504422855
 30
0.0
 10
-46.03058372960239
 20
132.2992171568066
 30
0.0
  0
SPLINE
  5
80
330
1F
100
AcDbEntity
  8
0
  6
Continuous
 62
     7
370
    25
100
AcDbSpline
210
0.0
220
0.0
230
1.0
 70
     8
 71
     3
 72
     9
 73
     5
 74
     0
 42
0.00000001
 43
0.00000001
 40
0.0
 40
0.0
 40
0.0
 40
0.0
 40
0.499999993474404
 40
1.0
 40
1.0
 40
1.0
 40
1.0
 10
-46.03058372960247
 20
86.29921715680668
 30
0.0
 10
-46.03058889958866
 20
89.9658837756188
 30
0.0
 10
-46.03059923956116
 20
97.29921710895182
 30
0.0
 10
-46.03058889958874
 20
104.6325504422855
 30
0.0
 10
-46.03058372960246
 20
108.2992171568067
 30
0.0
  0
SPLINE
  5
81
330
1F
100
AcDbEntity
  8
0
  6
Continuous
 62
     7
370
    25
100
AcDbSpline
210
0.0
220
0.0
230
1.0
 70
     8
 71
     3
 72
     9
 73
     5
 74
     0
 42
0.00000001
 43
0.00000001
 40
0.0
 40
0.0
 40
0.0
 40
0.0
 40
0.4999999934744046
 40
1.0
 40
1.0
 40
1.0
 40
1.0
 10
-46.03058372960246
 20
62.29921715680666
 30
0.0
 10
-46.03058889958864
 20
65.96588377561883
 30
0.0
 10
-46.03059923956115
 20
73.29921710895186
 30
0.0
 10
-46.03058889958874
 20
80.63255044228546
 30
0.0
 10
-46.03058372960246
 20
84.29921715680665
 30
0.0
  0
SPLINE
  5
82
330
1F
100
AcDbEntity
  8
0
  6
Continuous
 62
     7
370
    25
100
AcDbSpline
210
0.0
220
0.0
230
1.0
 70
     8
 71
     3
 72
     9
 73
     5
 74
     0
 42
0.00000001
 43
0.00000001
 40
0.0
 40
0.0
 40
0.0
 40
0.0
 40
0.499999993474404
 40
1.0
 40
1.0
 40
1.0
 40
1.0
 10
-46.03058372960254
 20
38.29921715680666
 30
0.0
 10
-46.03058889958872
 20
41.96588377561881
 30
0.0
 10
-46.03059923956121
 20
49.29921710895184
 30
0.0
 10
-46.03058889958881
 20
56.63255044228548
 30
0.0
 10
-46.03058372960254
 20
60.29921715680663
 30
0.0
  0
SPLINE
  5
8C
330
1F
100
AcDbEntity
  8
0
  6
Continuous
 62
     7
370
    25
100
AcDbSpline
210
0.0
220
0.0
230
1.0
 70
     8
 71
     3
 72
    37
 73
    33
 74
     0
 42
0.00000001
 43
0.00000001
 40
0.0
 40
0.0
 40
0.0
 40
0.0
 40
0.0454771641149934
 40
0.0859059325934233
 40
0.1216660561997354
 40
0.1531583633092607
 40
0.1808116781930021
 40
0.2046844703620345
 40
0.225784506177712
 40
0.2446379882969535
 40
0.2618084145774262
 40
0.2835292458112554
 40
0.3045378061793172
 40
0.3258774260598586
 40
0.3482006429704267
 40
0.371824776052998
 40
0.4033173008015854
 40
0.4369429676704383
 40
0.4726251504612788
 40
0.5104342372528518
 40
0.5402533481586068
 40
0.5717213386183803
 40
0.6052315815979497
 40
0.641290454625344
 40
0.6804998320736746
 40
0.7235326598008437
 40
0.7604978516702197
 40
0.8006254592590147
 40
0.8442782602359757
 40
0.8918188984133324
 40
0.9436074512908501
 40
1.0
 40
1.0
 40
1.0
 40
1.0
 10
-42.1968607973799
 20
-88.70078284319332
 30
0.0
 10
-39.06845828002146
 20
-88.7264916119422
 30
0.0
 10
-33.15893553357811
 20
-88.77505523278752
 30
0.0
 10
-24.79875093773088
 20
-89.21945675438316
 30
0.0
 10
-17.42364546311388
 20
-89.93591569465598
 30
0.0
 10
-10.96814921603022
 20
-90.93604771129645
 30
0.0
 10
-5.393957296281976
 20
-92.2022263153407
 30
0.0
 10
-0.6279518865385247
 20
-93.72359126281508
 30
0.0
 10
3.402919503853324
 20
-95.48679351166761
 30
0.0
 10
6.791294689387953
 20
-97.49974248376346
 30
0.0
 10
9.895544979843212
 20
-99.99962496477183
 30
0.0
 10
12.60605738101037
 20
-103.1461448493178
 30
0.0
 10
14.73463262475523
 20
-107.0371113553158
 30
0.0
 10
16.15575832509058
 20
-111.2707249210385
 30
0.0
 10
17.05140679297269
 20
-115.8201218907838
 30
0.0
 10
17.64075316120478
 20
-121.1175122360425
 30
0.0
 10
18.0144480958602
 20
-127.2110533646186
 30
0.0
 10
18.41271222886803
 20
-134.1332176803004
 30
0.0
 10
19.11146184832477
 20
-141.4716477821913
 30
0.0
 10
20.29809889027055
 20
-148.4880297070293
 30
0.0
 10
22.02080305566291
 20
-155.0908930159612
 30
0.0
 10
24.21637794229016
 20
-161.240809984798
 30
0.0
 10
27.17622842563582
 20
-167.5414894552884
 30
0.0
 10
31.02675803903823
 20
-173.9719335658285
 30
0.0
 10
35.89228864438817
 20
-180.510950474483
 30
0.0
 10
41.40521463355462
 20
-186.5973701228874
 30
0.0
 10
47.42460071592362
 20
-192.2667582974293
 30
0.0
 10
53.83638739976912
 20
-197.554966492651
 30
0.0
 10
61.14385267954392
 20
-202.8739803939906
 30
0.0
 10
69.4111866996511
 20
-208.2087258223059
 30
0.0
 10
78.6833147382626
 20
-213.58328600131
 30
0.0
 10
85.32227510013205
 20
-216.9472294073542
 30
0.0
 10
88.78302647069286
 20
-218.7007828431934
 30
0.0
  0
SPLINE
  5
C6
330
1F
100
AcDbEntity
  8
0
  6
Continuous
 62
     7
370
    25
100
AcDbSpline
210
0.0
220
0.0
230
1.0
 70
     8
 71
     3
 72
    33
 73
    29
 74
     0
 42
0.00000001
 43
0.00000001
 40
0.0
 40
0.0
 40
0.0
 40
0.0
 40
0.0502402949222835
 40
0.0967523610962047
 40
0.1399042217448847
 40
0.1800727496681267
 40
0.2176401721217869
 40
0.2635280045235548
 40
0.3064434359099772
 40
0.3471607240676984
 40
0.3916073597925081
 40
0.4348722370978633
 40
0.4774974027989908
 40
0.5197834196716755
 40
0.5618174643152669
 40
0.6035132100506507
 40
0.6527869155861612
 40
0.7007111631247732
 40
0.7466400966625204
 40
0.7899195334828201
 40
0.8300008747102803
 40
0.8607550810700291
 40
0.8892159506147611
 40
0.9159351296376754
 40
0.9355187064846389
 40
0.9554776273808465
 40
0.9766711907714534
 40
1.0
 40
1.0
 40
1.0
 40
1.0
 10
-239.3767480654526
 20
-218.7007828431934
 30
0.0
 10
-235.9414804821373
 20
-218.7547431588816
 30
0.0
 10
-229.3258694432858
 20
-218.8586595064349
 30
0.0
 10
-219.7933741111221
 20
-219.7499030829704
 30
0.0
 10
-211.0223393492067
 20
-221.1519749042539
 30
0.0
 10
-202.975761001852
 20
-223.0758762134092
 30
0.0
 10
-194.9328819633212
 20
-225.7007950145521
 30
0.0
 10
-187.0055345826435
 20
-229.1852323542181
 30
0.0
 10
-179.3620894493035
 20
-233.6976418621439
 30
0.0
 10
-172.3993749826569
 20
-239.0412223119795
 30
0.0
 10
-166.1467993306943
 20
-245.2415298824346
 30
0.0
 10
-160.6435055828273
 20
-252.2757312202146
 30
0.0
 10
-156.0361377318827
 20
-259.7475294972267
 30
0.0
 10
-152.1938654743593
 20
-267.5408884336316
 30
0.0
 10
-148.9871865534831
 20
-275.5439341160105
 30
0.0
 10
-146.1134157484422
 20
-284.1746229857867
 30
0.0
 10
-143.541100126034
 20
-293.3176144090947
 30
0.0
 10
-141.1549229294737
 20
-302.8070917369845
 30
0.0
 10
-138.9004425447516
 20
-311.9069845558471
 30
0.0
 10
-136.5688117931957
 20
-320.4343949667342
 30
0.0
 10
-134.077334527727
 20
-327.8362892916482
 30
0.0
 10
-131.3020666234224
 20
-334.0449666569675
 30
0.0
 10
-128.2250490441413
 20
-339.0755579893686
 30
0.0
 10
-124.7877389694328
 20
-342.9105091475781
 30
0.0
 10
-121.1198149983876
 20
-345.6145278574448
 30
0.0
 10
-117.3418584842313
 20
-347.3921355789197
 30
0.0
 10
-113.0426043766695
 20
-348.5121253324928
 30
0.0
 10
-109.9941751364177
 20
-348.6359180176029
 30
0.0
 10
-108.3968607973799
 20
-348.7007828431934
 30
0.0
  0
SPLINE
  5
CE
330
1F
100
AcDbEntity
  8
0
  6
Continuous
 62
     7
370
    25
100
AcDbSpline
210
0.0
220
0.0
230
1.0
 70
     8
 71
     3
 72
    33
 73
    29
 74
     0
 42
0.00000001
 43
0.00000001
 40
0.0
 40
0.0
 40
0.0
 40
0.0
 40
0.0502402949222836
 40
0.0967523610962047
 40
0.1399042217448848
 40
0.1800727496681267
 40
0.217640172121787
 40
0.2635280045235549
 40
0.3064434359099772
 40
0.3471607240676984
 40
0.391607359792508
 40
0.4348722370978632
 40
0.4774974027989907
 40
0.5197834196716755
 40
0.5618174643152668
 40
0.6035132100506506
 40
0.6527869155861612
 40
0.7007111631247732
 40
0.7466400966625204
 40
0.7899195334828201
 40
0.8300008747102803
 40
0.8607550810700292
 40
0.8892159506147611
 40
0.9159351296376755
 40
0.9355187064846388
 40
0.9554776273808464
 40
0.9766711907714533
 40
1.0
 40
1.0
 40
1.0
 40
1.0
 10
88.7830264706928
 20
-218.7007828431934
 30
0.0
 10
85.34775888737747
 20
-218.7547431588816
 30
0.0
 10
78.73214784852597
 20
-218.8586595064349
 30
0.0
 10
69.19965251636224
 20
-219.7499030829704
 30
0.0
 10
60.42861775444688
 20
-221.1519749042539
 30
0.0
 10
52.38203940709219
 20
-223.0758762134093
 30
0.0
 10
44.33916036856144
 20
-225.7007950145521
 30
0.0
 10
36.41181298788366
 20
-229.1852323542181
 30
0.0
 10
28.76836785454368
 20
-233.6976418621439
 30
0.0
 10
21.80565338789717
 20
-239.0412223119795
 30
0.0
 10
15.55307773593448
 20
-245.2415298824345
 30
0.0
 10
10.04978398806752
 20
-252.2757312202147
 30
0.0
 10
5.442416137122902
 20
-259.7475294972267
 30
0.0
 10
1.600143879599503
 20
-267.5408884336316
 30
0.0
 10
-1.606535041276697
 20
-275.5439341160105
 30
0.0
 10
-4.4803058463177
 20
-284.1746229857866
 30
0.0
 10
-7.052621468725845
 20
-293.3176144090947
 30
0.0
 10
-9.438798665286171
 20
-302.8070917369847
 30
0.0
 10
-11.69327905000818
 20
-311.9069845558471
 30
0.0
 10
-14.02490980156408
 20
-320.4343949667342
 30
0.0
 10
-16.51638706703276
 20
-327.8362892916483
 30
0.0
 10
-19.29165497133746
 20
-334.0449666569675
 30
0.0
 10
-22.36867255061852
 20
-339.0755579893686
 30
0.0
 10
-25.80598262532696
 20
-342.9105091475781
 30
0.0
 10
-29.47390659637217
 20
-345.6145278574448
 30
0.0
 10
-33.25186311052861
 20
-347.3921355789197
 30
0.0
 10
-37.55111721809034
 20
-348.5121253324929
 30
0.0
 10
-40.59954645834213
 20
-348.6359180176028
 30
0.0
 10
-42.19686079737993
 20
-348.7007828431935
 30
0.0
  0
CIRCLE
  5
DC
330
1F
100
AcDbEntity
  8
0
  6
Continuous
 62
     7
370
    25
100
AcDbCircle
 10
-48.3841130878
 20
-84.7007828432
 30
0.0
 40
2.600000000000009
  0
CIRCLE
  5
DD
330
1F
100
AcDbEntity
  8
0
  6
Continuous
 62
     7
370
    25
100
AcDbCircle
 10
-48.3841130878
 20
-84.7007828432
 30
0.0
 40
2.75
  0
CIRCLE
  5
EA
330
1F
100
AcDbEntity
  8
0
  6
Continuous
 62
     7
370
    25
100
AcDbCircle
 10
-102.2096085069
 20
-66.5317623055
 30
0.0
 40
2.599999999999994
  0
CIRCLE
  5
EB
330
1F
100
AcDbEntity
  8
0
  6
Continuous
 62
     7
370
    25
100
AcDbCircle
 10
-102.2096085069
 20
-66.5317623055
 30
0.0
 40
2.750000000000028
  0
CIRCLE
  5
F8
330
1F
100
AcDbEntity
  8
0
  6
Continuous
 62
     7
370
    25
100
AcDbCircle
 10
-102.2096085069
 20
-84.7007828432
 30
0.0
 40
2.59999999999998
  0
CIRCLE
  5
F9
330
1F
100
AcDbEntity
  8
0
  6
Continuous
 62
     7
370
    25
100
AcDbCircle
 10
-102.2096085069
 20
-84.7007828432
 30
0.0
 40
2.75
  0
CIRCLE
  5
106
330
1F
100
AcDbEntity
  8
0
  6
Continuous
 62
     7
370
    25
100
AcDbCircle
 10
-48.3841130878
 20
-66.5317623055
 30
0.0
 40
2.599999999999994
  0
CIRCLE
  5
10D
330
1F
100
AcDbEntity
  8
0
  6
Continuous
 62
     7
370
    25
100
AcDbCircle
 10
-48.3841130878
 20
-66.5317623055
 30
0.0
 40
2.750000000000014
  0
SPLINE
  5
118
330
1F
100
AcDbEntity
  8
0
  6
Continuous
 62
     7
370
    25
100
AcDbSpline
210
0.0
220
0.0
230
1.0
 70
     8
 71
     3
 72
    37
 73
    33
 74
     0
 42
0.00000001
 43
0.00000001
 40
0.0
 40
0.0
 40
0.0
 40
0.0
 40
0.0454771641149934
 40
0.0859059325934234
 40
0.1216660561997354
 40
0.1531583633092607
 40
0.1808116781930021
 40
0.2046844703620345
 40
0.225784506177712
 40
0.2446379882969535
 40
0.2618084145774262
 40
0.2835292458112555
 40
0.3045378061793172
 40
0.3258774260598587
 40
0.3482006429704268
 40
0.371824776052998
 40
0.4033173008015855
 40
0.4369429676704383
 40
0.4726251504612788
 40
0.5104342372528518
 40
0.5402533481586068
 40
0.5717213386183804
 40
0.6052315815979497
 40
0.6412904546253441
 40
0.6804998320736747
 40
0.7235326598008438
 40
0.7604978516702199
 40
0.800625459259015
 40
0.8442782602359759
 40
0.8918188984133324
 40
0.9436074512908501
 40
1.0
 40
1.0
 40
1.0
 40
1.0
 10
-108.3968607973799
 20
-88.70078284319332
 30
0.0
 10
-111.5252633147383
 20
-88.72649161194222
 30
0.0
 10
-117.4347860611816
 20
-88.77505523278754
 30
0.0
 10
-125.7949706570289
 20
-89.21945675438319
 30
0.0
 10
-133.1700761316459
 20
-89.93591569465599
 30
0.0
 10
-139.6255723787296
 20
-90.93604771129647
 30
0.0
 10
-145.1997642984778
 20
-92.20222631534068
 30
0.0
 10
-149.9657697082212
 20
-93.72359126281505
 30
0.0
 10
-153.9966410986131
 20
-95.48679351166763
 30
0.0
 10
-157.3850162841478
 20
-97.49974248376347
 30
0.0
 10
-160.4892665746029
 20
-99.99962496477184
 30
0.0
 10
-163.1997789757702
 20
-103.1461448493179
 30
0.0
 10
-165.328354219515
 20
-107.0371113553158
 30
0.0
 10
-166.7494799198503
 20
-111.2707249210385
 30
0.0
 10
-167.6451283877325
 20
-115.8201218907838
 30
0.0
 10
-168.2344747559645
 20
-121.1175122360425
 30
0.0
 10
-168.6081696906199
 20
-127.2110533646186
 30
0.0
 10
-169.0064338236278
 20
-134.1332176803004
 30
0.0
 10
-169.7051834430845
 20
-141.4716477821913
 30
0.0
 10
-170.8918204850304
 20
-148.4880297070294
 30
0.0
 10
-172.6145246504226
 20
-155.0908930159611
 30
0.0
 10
-174.81009953705
 20
-161.240809984798
 30
0.0
 10
-177.7699500203956
 20
-167.5414894552884
 30
0.0
 10
-181.620479633798
 20
-173.9719335658285
 30
0.0
 10
-186.4860102391479
 20
-180.5109504744831
 30
0.0
 10
-191.9989362283144
 20
-186.5973701228874
 30
0.0
 10
-198.0183223106833
 20
-192.2667582974292
 30
0.0
 10
-204.4301089945288
 20
-197.5549664926509
 30
0.0
 10
-211.7375742743037
 20
-202.8739803939906
 30
0.0
 10
-220.0049082944109
 20
-208.2087258223059
 30
0.0
 10
-229.2770363330224
 20
-213.58328600131
 30
0.0
 10
-235.9159966948918
 20
-216.9472294073542
 30
0.0
 10
-239.3767480654526
 20
-218.7007828431934
 30
0.0
  0
CIRCLE
  5
12E
330
1F
100
AcDbEntity
  8
0
  6
Continuous
 62
     7
370
    25
100
AcDbCircle
 10
-48.3841130878
 20
-66.5317623055
 30
0.0
 40
3.249999999999972
  0
CIRCLE
  5
12F
330
1F
100
AcDbEntity
  8
0
  6
Continuous
 62
     7
370
    25
100
AcDbCircle
 10
-48.3841130878
 20
-84.7007828432
 30
0.0
 40
3.250000000000014
  0
CIRCLE
  5
130
330
1F
100
AcDbEntity
  8
0
  6
Continuous
 62
     7
370
    25
100
AcDbCircle
 10
-102.2096085069
 20
-84.7007828432
 30
0.0
 40
3.25
  0
CIRCLE
  5
131
330
1F
100
AcDbEntity
  8
0
  6
Continuous
 62
     7
370
    25
100
AcDbCircle
 10
-102.2096085069
 20
-66.5317623055
 30
0.0
 40
3.249999999999972
  0
LINE
  5
138
330
1F
100
AcDbEntity
  8
0
  6
Continuous
 62
     7
370
    25
100
AcDbLine
 10
-104.5469791886
 20
108.2992171568
 30
0.0
 11
-104.5469791886
 21
86.2992171568
 31
0.0
  0
LINE
  5
139
330
1F
100
AcDbEntity
  8
0
  6
Continuous
 62
     7
370
    25
100
AcDbLine
 10
-104.5469791886
 20
84.2992171568
 30
0.0
 11
-104.5469791886
 21
62.2992171568
 31
0.0
  0
LINE
  5
13A
330
1F
100
AcDbEntity
  8
0
  6
Continuous
 62
     7
370
    25
100
AcDbLine
 10
-104.5469791886
 20
60.2992171568
 30
0.0
 11
-104.5469791886
 21
38.2992171568
 31
0.0
  0
LINE
  5
13B
330
1F
100
AcDbEntity
  8
0
  6
Continuous
 62
     7
370
    25
100
AcDbLine
 10
-104.5469791885
 20
132.2992171568
 30
0.0
 11
-104.5469791885
 21
110.2992171568
 31
0.0
  0
LINE
  5
13C
330
1F
100
AcDbEntity
  8
0
  6
Continuous
 62
     7
370
    25
100
AcDbLine
 10
-43.1968607974
 20
-348.7007828432
 30
0.0
 11
-43.1968607974
 21
-88.7007828432
 31
0.0
  0
LINE
  5
13E
330
1F
100
AcDbEntity
  8
0
  6
Continuous
 62
     7
370
    25
100
AcDbLine
 10
-2.6109568907
 20
-149.8553469365
 30
0.0
 11
-2.6109568907
 21
-174.3633469365
 31
0.0
  0
LINE
  5
13F
330
1F
100
AcDbEntity
  8
0
  6
Continuous
 62
     7
370
    25
100
AcDbLine
 10
-15.1189568907
 20
-149.8553469365
 30
0.0
 11
-2.6109568907
 21
-149.8553469365
 31
0.0
  0
LINE
  5
140
330
1F
100
AcDbEntity
  8
0
  6
Continuous
 62
     7
370
    25
100
AcDbLine
 10
-15.1189568907
 20
-174.3633469365
 30
0.0
 11
-15.1189568907
 21
-149.8553469365
 31
0.0
  0
LINE
  5
141
330
1F
100
AcDbEntity
  8
0
  6
Continuous
 62
     7
370
    25
100
AcDbLine
 10
-2.6109568907
 20
-174.3633469365
 30
0.0
 11
-15.1189568907
 21
-174.3633469365
 31
0.0
  0
LINE
  5
142
330
1F
100
AcDbEntity
  8
0
  6
Continuous
 62
     7
370
    25
100
AcDbLine
 10
-46.0443900212
 20
60.2992171568
 30
0.0
 11
-44.3022697161
 21
60.2992171568
 31
0.0
  0
LINE
  5
143
330
1F
100
AcDbEntity
  8
0
  6
Continuous
 62
     7
370
    25
100
AcDbLine
 10
-46.0443386482
 20
38.2992171568
 30
0.0
 11
-46.0443386482
 21
60.2992171568
 31
0.0
  0
LINE
  5
144
330
1F
100
AcDbEntity
  8
0
  6
Continuous
 62
     7
370
    25
100
AcDbLine
 10
-44.3022697161
 20
38.2992171568
 30
0.0
 11
-46.0443900212
 21
38.2992171568
 31
0.0
  0
LINE
  5
145
330
1F
100
AcDbEntity
  8
0
  6
Continuous
 62
     7
370
    25
100
AcDbLine
 10
-44.3022697161
 20
60.2992171568
 30
0.0
 11
-44.3022697161
 21
38.2992171568
 31
0.0
  0
LINE
  5
146
330
1F
100
AcDbEntity
  8
0
  6
Continuous
 62
     7
370
    25
100
AcDbLine
 10
-106.2400706554
 20
60.2992171568
 30
0.0
 11
-104.5147009456
 21
60.2992171568
 31
0.0
  0
LINE
  5
147
330
1F
100
AcDbEntity
  8
0
  6
Continuous
 62
     7
370
    25
100
AcDbLine
 10
-106.2400706554
 20
38.2992171568
 30
0.0
 11
-106.2400706554
 21
60.2992171568
 31
0.0
  0
LINE
  5
148
330
1F
100
AcDbEntity
  8
0
  6
Continuous
 62
     7
370
    25
100
AcDbLine
 10
-104.5147009463
 20
38.2992171568
 30
0.0
 11
-106.2400706554
 21
38.2992171568
 31
0.0
  0
LINE
  5
149
330
1F
100
AcDbEntity
  8
0
  6
Continuous
 62
     7
370
    25
100
AcDbLine
 10
-104.5147009456
 20
60.2992171568
 30
0.0
 11
-104.5147009463
 21
38.2992171568
 31
0.0
  0
LINE
  5
14A
330
1F
100
AcDbEntity
  8
0
  6
Continuous
 62
     7
370
    25
100
AcDbLine
 10
-46.0443900212
 20
84.2992171568
 30
0.0
 11
-44.3022697161
 21
84.2992171568
 31
0.0
  0
LINE
  5
14B
330
1F
100
AcDbEntity
  8
0
  6
Continuous
 62
     7
370
    25
100
AcDbLine
 10
-46.0443386482
 20
62.2992171568
 30
0.0
 11
-46.0443386482
 21
84.2992171568
 31
0.0
  0
LINE
  5
14C
330
1F
100
AcDbEntity
  8
0
  6
Continuous
 62
     7
370
    25
100
AcDbLine
 10
-44.3022697161
 20
62.2992171568
 30
0.0
 11
-46.0443900212
 21
62.2992171568
 31
0.0
  0
LINE
  5
14D
330
1F
100
AcDbEntity
  8
0
  6
Continuous
 62
     7
370
    25
100
AcDbLine
 10
-44.3022697161
 20
84.2992171568
 30
0.0
 11
-44.3022697161
 21
62.2992171568
 31
0.0
  0
LINE
  5
14E
330
1F
100
AcDbEntity
  8
0
  6
Continuous
 62
     7
370
    25
100
AcDbLine
 10
-106.2400706554
 20
84.2992171568
 30
0.0
 11
-104.5147009456
 21
84.2992171568
 31
0.0
  0
LINE
  5
14F
330
1F
100
AcDbEntity
  8
0
  6
Continuous
 62
     7
370
    25
100
AcDbLine
 10
-106.2400706554
 20
62.2992171568
 30
0.0
 11
-106.2400706554
 21
84.2992171568
 31
0.0
  0
LINE
  5
150
330
1F
100
AcDbEntity
  8
0
  6
Continuous
 62
     7
370
    25
100
AcDbLine
 10
-104.5147009463
 20
62.2992171568
 30
0.0
 11
-106.2400706554
 21
62.2992171568
 31
0.0
  0
LINE
  5
151
330
1F
100
AcDbEntity
  8
0
  6
Continuous
 62
     7
370
    25
100
AcDbLine
 10
-104.5147009456
 20
84.2992171568
 30
0.0
 11
-104.5147009463
 21
62.2992171568
 31
0.0
  0
LINE
  5
152
330
1F
100
AcDbEntity
  8
0
  6
Continuous
 62
     7
370
    25
100
AcDbLine
 10
-46.0443900212
 20
108.2992171568
 30
0.0
 11
-44.3022697161
 21
108.2992171568
 31
0.0
  0
LINE
  5
153
330
1F
100
AcDbEntity
  8
0
  6
Continuous
 62
     7
370
    25
100
AcDbLine
 10
-46.0443386482
 20
86.2992171568
 30
0.0
 11
-46.0443386482
 21
108.2992171568
 31
0.0
  0
LINE
  5
154
330
1F
100
AcDbEntity
  8
0
  6
Continuous
 62
     7
370
    25
100
AcDbLine
 10
-44.3022697161
 20
86.2992171568
 30
0.0
 11
-46.0443900212
 21
86.2992171568
 31
0.0
  0
LINE
  5
155
330
1F
100
AcDbEntity
  8
0
  6
Continuous
 62
     7
370
    25
100
AcDbLine
 10
-44.3022697161
 20
108.2992171568
 30
0.0
 11
-44.3022697161
 21
86.2992171568
 31
0.0
  0
LINE
  5
156
330
1F
100
AcDbEntity
  8
0
  6
Continuous
 62
     7
370
    25
100
AcDbLine
 10
-106.2400706554
 20
108.2992171568
 30
0.0
 11
-104.5147009456
 21
108.2992171568
 31
0.0
  0
LINE
  5
157
330
1F
100
AcDbEntity
  8
0
  6
Continuous
 62
     7
370
    25
100
AcDbLine
 10
-106.2400706554
 20
86.2992171568
 30
0.0
 11
-106.2400706554
 21
108.2992171568
 31
0.0
  0
LINE
  5
158
330
1F
100
AcDbEntity
  8
0
  6
Continuous
 62
     7
370
    25
100
AcDbLine
 10
-104.5147009463
 20
86.2992171568
 30
0.0
 11
-106.2400706554
 21
86.2992171568
 31
0.0
  0
LINE
  5
159
330
1F
100
AcDbEntity
  8
0
  6
Continuous
 62
     7
370
    25
100
AcDbLine
 10
-104.5147009456
 20
108.2992171568
 30
0.0
 11
-104.5147009463
 21
86.2992171568
 31
0.0
  0
LINE
  5
15A
330
1F
100
AcDbEntity
  8
0
  6
Continuous
 62
     7
370
    25
100
AcDbLine
 10
-104.5147009456
 20
132.2992171568
 30
0.0
 11
-104.5147009463
 21
110.2992171568
 31
0.0
  0
LINE
  5
15B
330
1F
100
AcDbEntity
  8
0
  6
Continuous
 62
     7
370
    25
100
AcDbLine
 10
-106.2400706545
 20
132.2992171568
 30
0.0
 11
-104.5147009456
 21
132.2992171568
 31
0.0
  0
LINE
  5
15C
330
1F
100
AcDbEntity
  8
0
  6
Continuous
 62
     7
370
    25
100
AcDbLine
 10
-106.2400706545
 20
110.2992171568
 30
0.0
 11
-106.2400706545
 21
132.2992171568
 31
0.0
  0
LINE
  5
15D
330
1F
100
AcDbEntity
  8
0
  6
Continuous
 62
     7
370
    25
100
AcDbLine
 10
-104.5147009463
 20
110.2992171568
 30
0.0
 11
-106.2400706545
 21
110.2992171568
 31
0.0
  0
LINE
  5
15E
330
1F
100
AcDbEntity
  8
0
  6
Continuous
 62
     7
370
    25
100
AcDbLine
 10
-46.0443386482
 20
110.2992171568
 30
0.0
 11
-46.0443386482
 21
132.2992171568
 31
0.0
  0
LINE
  5
15F
330
1F
100
AcDbEntity
  8
0
  6
Continuous
 62
     7
370
    25
100
AcDbLine
 10
-44.302269716
 20
110.2992171568
 30
0.0
 11
-46.0443900212
 21
110.2992171568
 31
0.0
  0
LINE
  5
160
330
1F
100
AcDbEntity
  8
0
  6
Continuous
 62
     7
370
    25
100
AcDbLine
 10
-44.302269716
 20
132.2992171568
 30
0.0
 11
-44.302269716
 21
110.2992171568
 31
0.0
  0
LINE
  5
161
330
1F
100
AcDbEntity
  8
0
  6
Continuous
 62
     7
370
    25
100
AcDbLine
 10
-46.0443900212
 20
132.2992171568
 30
0.0
 11
-44.302269716
 21
132.2992171568
 31
0.0
  0
LINE
  5
162
330
1F
100
AcDbEntity
  8
0
  6
Continuous
 62
     7
370
    25
100
AcDbLine
 10
-43.2968607974
 20
136.2992171568
 30
0.0
 11
-107.2968607974
 21
136.2992171568
 31
0.0
  0
LINE
  5
163
330
1F
100
AcDbEntity
  8
0
  6
Continuous
 62
     7
370
    25
100
AcDbLine
 10
-107.2968607974
 20
-13.7007828432
 30
0.0
 11
-43.2968607974
 21
-13.7007828432
 31
0.0
  0
LINE
  5
164
330
1F
100
AcDbEntity
  8
0
  6
Continuous
 62
     7
370
    25
100
AcDbLine
 10
88.7830264707
 20
-218.7007828432
 30
0.0
 11
-239.3767480655
 21
-218.7007828432
 31
0.0
  0
LINE
  5
165
330
1F
100
AcDbEntity
  8
0
  6
Continuous
 62
     7
370
    25
100
AcDbLine
 10
-107.3968607974
 20
-348.7007828432
 30
0.0
 11
-107.3968607974
 21
-88.7007828432
 31
0.0
  0
LINE
  5
167
330
1F
100
AcDbEntity
  8
0
  6
Continuous
 62
     7
370
    25
100
AcDbLine
 10
-42.1968607974
 20
-348.7007828432
 30
0.0
 11
-108.3968607974
 21
-348.7007828432
 31
0.0
  0
LINE
  5
168
330
1F
100
AcDbEntity
  8
0
  6
Continuous
 62
     7
370
    25
100
AcDbLine
 10
-106.2968607974
 20
-348.7007828432
 30
0.0
 11
-106.2968607974
 21
136.2992171568
 31
0.0
  0
LINE
  5
169
330
1F
100
AcDbEntity
  8
0
  6
Continuous
 62
     7
370
    25
100
AcDbLine
 10
-107.2968607974
 20
-348.7007828432
 30
0.0
 11
-107.2968607974
 21
136.2992171568
 31
0.0
  0
LINE
  5
16A
330
1F
100
AcDbEntity
  8
0
  6
Continuous
 62
     7
370
    25
100
AcDbLine
 10
-44.2968607974
 20
-348.7007828432
 30
0.0
 11
-44.2968607974
 21
136.2992171568
 31
0.0
  0
LINE
  5
16B
330
1F
100
AcDbEntity
  8
0
  6
Continuous
 62
     7
370
    25
100
AcDbLine
 10
-43.2968607974
 20
-348.7007828432
 30
0.0
 11
-43.2968607974
 21
136.2992171568
 31
0.0
  0
LINE
  5
16C
330
1F
100
AcDbEntity
  8
0
  6
Continuous
 62
     7
370
    25
100
AcDbLine
 10
-46.9060963987
 20
-84.7007828432
 30
0.0
 11
-47.6451047433
 21
-83.4207828432
 31
0.0
  0
LINE
  5
16D
330
1F
100
AcDbEntity
  8
0
  6
Continuous
 62
     7
370
    25
100
AcDbLine
 10
-47.6451047433
 20
-83.4207828432
 30
0.0
 11
-49.1231214324
 21
-83.4207828432
 31
0.0
  0
LINE
  5
16E
330
1F
100
AcDbEntity
  8
0
  6
Continuous
 62
     7
370
    25
100
AcDbLine
 10
-49.8621297769
 20
-84.7007828432
 30
0.0
 11
-49.1231214324
 21
-83.4207828432
 31
0.0
  0
LINE
  5
16F
330
1F
100
AcDbEntity
  8
0
  6
Continuous
 62
     7
370
    25
100
AcDbLine
 10
-49.1231214324
 20
-85.9807828432
 30
0.0
 11
-49.8621297769
 21
-84.7007828432
 31
0.0
  0
LINE
  5
170
330
1F
100
AcDbEntity
  8
0
  6
Continuous
 62
     7
370
    25
100
AcDbLine
 10
-49.1231214324
 20
-85.9807828432
 30
0.0
 11
-47.6451047433
 21
-85.9807828432
 31
0.0
  0
LINE
  5
171
330
1F
100
AcDbEntity
  8
0
  6
Continuous
 62
     7
370
    25
100
AcDbLine
 10
-46.9060963987
 20
-84.7007828432
 30
0.0
 11
-47.6451047433
 21
-85.9807828432
 31
0.0
  0
LINE
  5
172
330
1F
100
AcDbEntity
  8
0
  6
Continuous
 62
     7
370
    25
100
AcDbLine
 10
-100.7315918178
 20
-66.5317623055
 30
0.0
 11
-101.4706001624
 21
-65.2517623055
 31
0.0
  0
LINE
  5
173
330
1F
100
AcDbEntity
  8
0
  6
Continuous
 62
     7
370
    25
100
AcDbLine
 10
-101.4706001624
 20
-65.2517623055
 30
0.0
 11
-102.9486168515
 21
-65.2517623055
 31
0.0
  0
LINE
  5
174
330
1F
100
AcDbEntity
  8
0
  6
Continuous
 62
     7
370
    25
100
AcDbLine
 10
-103.6876251961
 20
-66.5317623055
 30
0.0
 11
-102.9486168515
 21
-65.2517623055
 31
0.0
  0
LINE
  5
175
330
1F
100
AcDbEntity
  8
0
  6
Continuous
 62
     7
370
    25
100
AcDbLine
 10
-102.9486168515
 20
-67.8117623055
 30
0.0
 11
-103.6876251961
 21
-66.5317623055
 31
0.0
  0
LINE
  5
176
330
1F
100
AcDbEntity
  8
0
  6
Continuous
 62
     7
370
    25
100
AcDbLine
 10
-102.9486168515
 20
-67.8117623055
 30
0.0
 11
-101.4706001624
 21
-67.8117623055
 31
0.0
  0
LINE
  5
177
330
1F
100
AcDbEntity
  8
0
  6
Continuous
 62
     7
370
    25
100
AcDbLine
 10
-100.7315918178
 20
-66.5317623055
 30
0.0
 11
-101.4706001624
 21
-67.8117623055
 31
0.0
  0
LINE
  5
178
330
1F
100
AcDbEntity
  8
0
  6
Continuous
 62
     7
370
    25
100
AcDbLine
 10
-100.7315918178
 20
-84.7007828432
 30
0.0
 11
-101.4706001624
 21
-83.4207828432
 31
0.0
  0
LINE
  5
179
330
1F
100
AcDbEntity
  8
0
  6
Continuous
 62
     7
370
    25
100
AcDbLine
 10
-101.4706001624
 20
-83.4207828432
 30
0.0
 11
-102.9486168515
 21
-83.4207828432
 31
0.0
  0
LINE
  5
17A
330
1F
100
AcDbEntity
  8
0
  6
Continuous
 62
     7
370
    25
100
AcDbLine
 10
-103.6876251961
 20
-84.7007828432
 30
0.0
 11
-102.9486168515
 21
-83.4207828432
 31
0.0
  0
LINE
  5
17B
330
1F
100
AcDbEntity
  8
0
  6
Continuous
 62
     7
370
    25
100
AcDbLine
 10
-102.9486168515
 20
-85.9807828432
 30
0.0
 11
-103.6876251961
 21
-84.7007828432
 31
0.0
  0
LINE
  5
17C
330
1F
100
AcDbEntity
  8
0
  6
Continuous
 62
     7
370
    25
100
AcDbLine
 10
-102.9486168515
 20
-85.9807828432
 30
0.0
 11
-101.4706001624
 21
-85.9807828432
 31
0.0
  0
LINE
  5
17D
330
1F
100
AcDbEntity
  8
0
  6
Continuous
 62
     7
370
    25
100
AcDbLine
 10
-100.7315918178
 20
-84.7007828432
 30
0.0
 11
-101.4706001624
 21
-85.9807828432
 31
0.0
  0
LINE
  5
17E
330
1F
100
AcDbEntity
  8
0
  6
Continuous
 62
     7
370
    25
100
AcDbLine
 10
-46.9060963987
 20
-66.5317623055
 30
0.0
 11
-47.6451047433
 21
-65.2517623055
 31
0.0
  0
LINE
  5
17F
330
1F
100
AcDbEntity
  8
0
  6
Continuous
 62
     7
370
    25
100
AcDbLine
 10
-47.6451047433
 20
-65.2517623055
 30
0.0
 11
-49.1231214324
 21
-65.2517623055
 31
0.0
  0
LINE
  5
180
330
1F
100
AcDbEntity
  8
0
  6
Continuous
 62
     7
370
    25
100
AcDbLine
 10
-49.8621297769
 20
-66.5317623055
 30
0.0
 11
-49.1231214324
 21
-65.2517623055
 31
0.0
  0
LINE
  5
181
330
1F
100
AcDbEntity
  8
0
  6
Continuous
 62
     7
370
    25
100
AcDbLine
 10
-49.1231214324
 20
-67.8117623055
 30
0.0
 11
-49.8621297769
 21
-66.5317623055
 31
0.0
  0
LINE
  5
182
330
1F
100
AcDbEntity
  8
0
  6
Continuous
 62
     7
370
    25
100
AcDbLine
 10
-49.1231214324
 20
-67.8117623055
 30
0.0
 11
-47.6451047433
 21
-67.8117623055
 31
0.0
  0
LINE
  5
183
330
1F
100
AcDbEntity
  8
0
  6
Continuous
 62
     7
370
    25
100
AcDbLine
 10
-46.9060963987
 20
-66.5317623055
 30
0.0
 11
-47.6451047433
 21
-67.8117623055
 31
0.0
  0
LINE
  5
184
330
1F
100
AcDbEntity
  8
0
  6
Continuous
 62
     7
370
    25
100
AcDbLine
 10
-135.4747647041
 20
-174.3633469365
 30
0.0
 11
-135.4747647041
 21
-149.8553469365
 31
0.0
  0
LINE
  5
185
330
1F
100
AcDbEntity
  8
0
  6
Continuous
 62
     7
370
    25
100
AcDbLine
 10
-135.4747647041
 20
-149.8553469365
 30
0.0
 11
-147.9827647041
 21
-149.8553469365
 31
0.0
  0
LINE
  5
186
330
1F
100
AcDbEntity
  8
0
  6
Continuous
 62
     7
370
    25
100
AcDbLine
 10
-147.9827647041
 20
-149.8553469365
 30
0.0
 11
-147.9827647041
 21
-174.3633469365
 31
0.0
  0
LINE
  5
187
330
1F
100
AcDbEntity
  8
0
  6
Continuous
 62
     7
370
    25
100
AcDbLine
 10
-147.9827647041
 20
-174.3633469365
 30
0.0
 11
-135.4747647041
 21
-174.3633469365
 31
0.0
  0
LINE
  5
188
330
1F
100
AcDbEntity
  8
0
  6
Continuous
 62
     7
370
    25
100
AcDbLine
 10
-42.1968607974
 20
-88.7007828432
 30
0.0
 11
-108.3968607974
 21
-88.7007828432
 31
0.0
  0
ARC
  5
189
330
1F
100
AcDbEntity
  8
0
  6
Continuous
 62
     7
370
    25
100
AcDbCircle
 10
-48.3841130878
 20
-84.7007828432
 30
0.0
 40
1.280000000000001
100
AcDbArc
 50
330.0
 51
270.0
  0
ARC
  5
18A
330
1F
100
AcDbEntity
  8
0
  6
Continuous
 62
     7
370
    25
100
AcDbCircle
 10
-102.2096085069
 20
-66.5317623055
 30
0.0
 40
1.279999999999987
100
AcDbArc
 50
330.0
 51
270.0
  0
ARC
  5
18B
330
1F
100
AcDbEntity
  8
0
  6
Continuous
 62
     7
370
    25
100
AcDbCircle
 10
-102.2096085069
 20
-84.7007828432
 30
0.0
 40
1.279999999999987
100
AcDbArc
 50
330.0
 51
270.0
  0
ARC
  5
18C
330
1F
100
AcDbEntity
  8
0
  6
Continuous
 62
     7
370
    25
100
AcDbCircle
 10
-48.3841130878
 20
-66.5317623055
 30
0.0
 40
1.280000000000015
100
AcDbArc
 50
330.0
 51
270.0
  0
MTEXT
  5
18E
330
1F
100
AcDbEntity
  8
0
  6
Continuous
 62
     7
100
AcDbMText
 10
-239.3767480655
 20
-349.7203492349
 30
0.0
 40
4.83362
 41
0.0
 71
     1
 72
     1
  1
SOLIDWORKS Educational Product.
  7
SLDTEXTSTYLE0
 73
     1
 44
1.0
  0
MTEXT
  5
18F
330
1F
100
AcDbEntity
  8
0
  6
Continuous
 62
     7
100
AcDbMText
 10
-239.3767480655
 20
-356.9707792349
 30
0.0
 40
4.83362
 41
0.0
 71
     1
 72
     1
  1
For Instructional Use Only.
  7
SLDTEXTSTYLE0
 73
     1
 44
1.0
  0
ENDSEC
  0
SECTION
  2
OBJECTS
  0
DICTIONARY
  5
C
330
0
100
AcDbDictionary
281
     1
  3
ACAD_GROUP
350
D
  3
ACAD_LAYOUT
350
1A
  3
ACAD_MLINESTYLE
350
17
  3
ACAD_PLOTSETTINGS
350
19
  3
ACAD_PLOTSTYLENAME
350
E
  3
ACAD_SCALELIST
350
47
  3
DWGPROPS
350
190
  0
DICTIONARY
  5
D
102
{ACAD_REACTORS
330
C
102
}
330
C
100
AcDbDictionary
281
     1
  0
DICTIONARY
  5
1A
102
{ACAD_REACTORS
330
C
102
}
330
C
100
AcDbDictionary
281
     1
  3
Layout1
350
1E
  3
Layout2
350
26
  3
Model
350
22
  0
DICTIONARY
  5
17
102
{ACAD_REACTORS
330
C
102
}
330
C
100
AcDbDictionary
281
     1
  3
Standard
350
18
  0
DICTIONARY
  5
19
102
{ACAD_REACTORS
330
C
102
}
330
C
100
AcDbDictionary
281
     1
  0
ACDBDICTIONARYWDFLT
  5
E
102
{ACAD_REACTORS
330
C
102
}
330
C
100
AcDbDictionary
281
     1
  3
Normal
350
F
100
AcDbDictionaryWithDefault
340
F
  0
DICTIONARY
  5
47
102
{ACAD_REACTORS
330
C
102
}
330
C
100
AcDbDictionary
281
     1
  3
A0
350
48
  3
A1
350
49
  3
A2
350
4A
  3
A3
350
4B
  3
A4
350
4C
  3
A5
350
4D
  3
A6
350
4E
  3
A7
350
4F
  3
A8
350
50
  3
A9
350
51
  3
B0
350
52
  3
B1
350
53
  3
B2
350
54
  3
B3
350
55
  3
B4
350
56
  3
B5
350
57
  3
B6
350
58
  0
XRECORD
  5
190
102
{ACAD_REACTORS
330
C
102
}
330
C
100
AcDbXrecord
280
     1
  1
DWGPROPS COOKIE
  2

  3

  4

  6

  7

  8
User
  9

300
=
301
=
302
=
303
=
304
=
305
=
306
=
307
=
308
=
309
=
 40
0.0
 41
2460062.390508125
 42
2460062.391323588
  1

 90
        0
  0
LAYOUT
  5
1E
102
{ACAD_REACTORS
330
1A
102
}
330
1A
100
AcDbPlotSettings
  1

  2
none_device
  4

  6

 40
0.0
 41
0.0
 42
0.0
 43
0.0
 44
0.0
 45
0.0
 46
0.0
 47
0.0
 48
0.0
 49
0.0
140
0.0
141
0.0
142
1.0
143
1.0
 70
   688
 72
     1
 73
     0
 74
     5
  7

 75
    16
147
1.0
148
0.0
149
0.0
100
AcDbLayout
  1
Layout1
 70
     1
 71
     1
 10
0.0
 20
0.0
 11
420.0
 21
297.0
 12
0.0
 22
0.0
 32
0.0
 14
1.0000000000E+20
 24
1.0000000000E+20
 34
1.0000000000E+20
 15
-1.0000000000E+20
 25
-1.0000000000E+20
 35
-1.0000000000E+20
146
0.0
 13
0.0
 23
0.0
 33
0.0
 16
1.0
 26
0.0
 36
0.0
 17
0.0
 27
1.0
 37
0.0
 76
     0
330
1B
  0
LAYOUT
  5
26
102
{ACAD_REACTORS
330
1A
102
}
330
1A
100
AcDbPlotSettings
  1

  2
none_device
  4

  6

 40
0.0
 41
0.0
 42
0.0
 43
0.0
 44
0.0
 45
0.0
 46
0.0
 47
0.0
 48
0.0
 49
0.0
140
0.0
141
0.0
142
1.0
143
1.0
 70
   688
 72
     1
 73
     0
 74
     5
  7

 75
    16
147
1.0
148
0.0
149
0.0
100
AcDbLayout
  1
Layout2
 70
     1
 71
     2
 10
0.0
 20
0.0
 11
0.0
 21
0.0
 12
0.0
 22
0.0
 32
0.0
 14
0.0
 24
0.0
 34
0.0
 15
0.0
 25
0.0
 35
0.0
146
0.0
 13
0.0
 23
0.0
 33
0.0
 16
1.0
 26
0.0
 36
0.0
 17
0.0
 27
1.0
 37
0.0
 76
     0
330
23
  0
LAYOUT
  5
22
102
{ACAD_REACTORS
330
1A
102
}
330
1A
100
AcDbPlotSettings
  1

  2
none_device
  4
ANSI_A_(11.00_x_8.50_Inches)
  6

 40
6.35
 41
19.05
 42
6.35000508
 43
19.05000254
 44
279.4
 45
215.9
 46
166.5335568903
 47
135.703012185
 48
0.0
 49
0.0
140
0.0
141
0.0
142
0.0173505155
143
1.0
 70
  1696
 72
     0
 73
     0
 74
     0
  7

 75
     0
147
0.0179189148
148
-1300.4909072572
149
0.0
100
AcDbLayout
  1
Model
 70
     1
 71
     0
 10
0.0
 20
0.0
 11
420.0
 21
297.0
 12
0.0
 22
0.0
 32
0.0
 14
-239.3767480655
 24
-348.7007828432
 34
0.0
 15
88.7830264707
 25
136.2992171568
 35
0.0
146
0.0
 13
0.0
 23
0.0
 33
0.0
 16
1.0
 26
0.0
 36
0.0
 17
0.0
 27
1.0
 37
0.0
 76
     0
330
1F
331
29
  0
MLINESTYLE
  5
18
102
{ACAD_REACTORS
330
17
102
}
330
17
100
AcDbMlineStyle
  2
Standard
 70
     0
  3

 62
   256
 51
90.0
 52
90.0
 71
     2
 49
0.5
 62
   256
  6
BYLAYER
 49
-0.5
 62
   256
  6
BYLAYER
  0
ACDBPLACEHOLDER
  5
F
102
{ACAD_REACTORS
330
E
102
}
330
E
  0
SCALE
  5
48
102
{ACAD_REACTORS
330
47
102
}
330
47
100
AcDbScale
 70
     0
300
1:1
140
1.0
141
1.0
290
     1
  0
SCALE
  5
49
102
{ACAD_REACTORS
330
47
102
}
330
47
100
AcDbScale
 70
     0
300
1:2
140
1.0
141
2.0
290
     0
  0
SCALE
  5
4A
102
{ACAD_REACTORS
330
47
102
}
330
47
100
AcDbScale
 70
     0
300
1:4
140
1.0
141
4.0
290
     0
  0
SCALE
  5
4B
102
{ACAD_REACTORS
330
47
102
}
330
47
100
AcDbScale
 70
     0
300
1:5
140
1.0
141
5.0
290
     0
  0
SCALE
  5
4C
102
{ACAD_REACTORS
330
47
102
}
330
47
100
AcDbScale
 70
     0
300
1:8
140
1.0
141
8.0
290
     0
  0
SCALE
  5
4D
102
{ACAD_REACTORS
330
47
102
}
330
47
100
AcDbScale
 70
     0
300
1:10
140
1.0
141
10.0
290
     0
  0
SCALE
  5
4E
102
{ACAD_REACTORS
330
47
102
}
330
47
100
AcDbScale
 70
     0
300
1:16
140
1.0
141
16.0
290
     0
  0
SCALE
  5
4F
102
{ACAD_REACTORS
330
47
102
}
330
47
100
AcDbScale
 70
     0
300
1:20
140
1.0
141
20.0
290
     0
  0
SCALE
  5
50
102
{ACAD_REACTORS
330
47
102
}
330
47
100
AcDbScale
 70
     0
300
1:30
140
1.0
141
30.0
290
     0
  0
SCALE
  5
51
102
{ACAD_REACTORS
330
47
102
}
330
47
100
AcDbScale
 70
     0
300
1:40
140
1.0
141
40.0
290
     0
  0
SCALE
  5
52
102
{ACAD_REACTORS
330
47
102
}
330
47
100
AcDbScale
 70
     0
300
1:50
140
1.0
141
50.0
290
     0
  0
SCALE
  5
53
102
{ACAD_REACTORS
330
47
102
}
330
47
100
AcDbScale
 70
     0
300
1:100
140
1.0
141
100.0
290
     0
  0
SCALE
  5
54
102
{ACAD_REACTORS
330
47
102
}
330
47
100
AcDbScale
 70
     0
300
2:1
140
2.0
141
1.0
290
     0
  0
SCALE
  5
55
102
{ACAD_REACTORS
330
47
102
}
330
47
100
AcDbScale
 70
     0
300
4:1
140
4.0
141
1.0
290
     0
  0
SCALE
  5
56
102
{ACAD_REACTORS
330
47
102
}
330
47
100
AcDbScale
 70
     0
300
8:1
140
8.0
141
1.0
290
     0
  0
SCALE
  5
57
102
{ACAD_REACTORS
330
47
102
}
330
47
100
AcDbScale
 70
     0
300
10:1
140
10.0
141
1.0
290
     0
  0
SCALE
  5
58
102
{ACAD_REACTORS
330
47
102
}
330
47
100
AcDbScale
 70
     0
300
100:1
140
100.0
141
1.0
290
     0
  0
ENDSEC
  0
EOF
